<?xml version="1.0" encoding="UTF-8" standalone="no"?>
<!-- Created with Inkscape (http://www.inkscape.org/) -->

<svg
   xmlns:dc="http://purl.org/dc/elements/1.1/"
   xmlns:cc="http://creativecommons.org/ns#"
   xmlns:rdf="http://www.w3.org/1999/02/22-rdf-syntax-ns#"
   xmlns:svg="http://www.w3.org/2000/svg"
   xmlns="http://www.w3.org/2000/svg"
   xmlns:sodipodi="http://sodipodi.sourceforge.net/DTD/sodipodi-0.dtd"
   xmlns:inkscape="http://www.inkscape.org/namespaces/inkscape"
   id="svg2"
   version="1.1"
   inkscape:version="0.91 r13725"
   width="891.28271"
   height="313.54065"
   xml:space="preserve"
   sodipodi:docname="domino-time.svg"><metadata
     id="metadata8"><rdf:RDF><cc:Work
         rdf:about=""><dc:format>image/svg+xml</dc:format><dc:type
           rdf:resource="http://purl.org/dc/dcmitype/StillImage" /><dc:title></dc:title></cc:Work></rdf:RDF></metadata><defs
     id="defs6"><marker
       inkscape:stockid="Arrow2Lend"
       orient="auto"
       refY="0.0"
       refX="0.0"
       id="Arrow2Lend"
       style="overflow:visible;"
       inkscape:isstock="true"><path
         id="path4167"
         style="fill-rule:evenodd;stroke-width:0.625;stroke-linejoin:round;stroke:#000000;stroke-opacity:1;fill:#000000;fill-opacity:1"
         d="M 8.7185878,4.0337352 L -2.2072895,0.016013256 L 8.7185884,-4.0017078 C 6.9730900,-1.6296469 6.9831476,1.6157441 8.7185878,4.0337352 z "
         transform="scale(1.1) rotate(180) translate(1,0)" /></marker><clipPath
       clipPathUnits="userSpaceOnUse"
       id="clipPath18"><path
         d="M 0,0 747,0 747,300 0,300 0,0 Z"
         id="path20"
         inkscape:connector-curvature="0" /></clipPath><clipPath
       clipPathUnits="userSpaceOnUse"
       id="clipPath30"><path
         d="m 1.000031,2 743.999899,0 0,297 -743.999899,0 0,-297 z"
         id="path32"
         inkscape:connector-curvature="0" /></clipPath><clipPath
       clipPathUnits="userSpaceOnUse"
       id="clipPath40"><path
         d="m 1.000031,2 743.999899,0 0,297 -743.999899,0 0,-297 z"
         id="path42"
         inkscape:connector-curvature="0" /></clipPath><clipPath
       clipPathUnits="userSpaceOnUse"
       id="clipPath52"><path
         d="m 38.00003,86 621,0 0,167 -621,0 0,-167 z"
         id="path54"
         inkscape:connector-curvature="0" /></clipPath><clipPath
       clipPathUnits="userSpaceOnUse"
       id="clipPath62"><path
         d="m 38.00003,86 621,0 0,167 -621,0 0,-167 z"
         id="path64"
         inkscape:connector-curvature="0" /></clipPath><clipPath
       clipPathUnits="userSpaceOnUse"
       id="clipPath72"><path
         d="m 38.00003,86 621,0 0,167 -621,0 0,-167 z"
         id="path74"
         inkscape:connector-curvature="0" /></clipPath><clipPath
       clipPathUnits="userSpaceOnUse"
       id="clipPath82"><path
         d="m 38.00003,86 621,0 0,167 -621,0 0,-167 z"
         id="path84"
         inkscape:connector-curvature="0" /></clipPath><clipPath
       clipPathUnits="userSpaceOnUse"
       id="clipPath92"><path
         d="m 38.00003,86 621,0 0,167 -621,0 0,-167 z"
         id="path94"
         inkscape:connector-curvature="0" /></clipPath><clipPath
       clipPathUnits="userSpaceOnUse"
       id="clipPath102"><path
         d="m 38.00003,86 621,0 0,167 -621,0 0,-167 z"
         id="path104"
         inkscape:connector-curvature="0" /></clipPath><clipPath
       clipPathUnits="userSpaceOnUse"
       id="clipPath112"><path
         d="m 1.000031,2 743.999899,0 0,297 -743.999899,0 0,-297 z"
         id="path114"
         inkscape:connector-curvature="0" /></clipPath><clipPath
       clipPathUnits="userSpaceOnUse"
       id="clipPath124"><path
         d="m 1.000031,2 743.999899,0 0,297 -743.999899,0 0,-297 z"
         id="path126"
         inkscape:connector-curvature="0" /></clipPath><clipPath
       clipPathUnits="userSpaceOnUse"
       id="clipPath136"><path
         d="m 1.000031,2 743.999899,0 0,297 -743.999899,0 0,-297 z"
         id="path138"
         inkscape:connector-curvature="0" /></clipPath><clipPath
       clipPathUnits="userSpaceOnUse"
       id="clipPath148"><path
         d="m 1.000031,2 743.999899,0 0,297 -743.999899,0 0,-297 z"
         id="path150"
         inkscape:connector-curvature="0" /></clipPath><clipPath
       clipPathUnits="userSpaceOnUse"
       id="clipPath160"><path
         d="m 1.000031,2 743.999899,0 0,297 -743.999899,0 0,-297 z"
         id="path162"
         inkscape:connector-curvature="0" /></clipPath><clipPath
       clipPathUnits="userSpaceOnUse"
       id="clipPath172"><path
         d="m 1.000031,2 743.999899,0 0,297 -743.999899,0 0,-297 z"
         id="path174"
         inkscape:connector-curvature="0" /></clipPath><clipPath
       clipPathUnits="userSpaceOnUse"
       id="clipPath184"><path
         d="m 1.000031,2 743.999899,0 0,297 -743.999899,0 0,-297 z"
         id="path186"
         inkscape:connector-curvature="0" /></clipPath><clipPath
       clipPathUnits="userSpaceOnUse"
       id="clipPath198"><path
         d="m 1.000031,2 743.999899,0 0,297 -743.999899,0 0,-297 z"
         id="path200"
         inkscape:connector-curvature="0" /></clipPath><clipPath
       clipPathUnits="userSpaceOnUse"
       id="clipPath212"><path
         d="m 1.000031,2 743.999899,0 0,297 -743.999899,0 0,-297 z"
         id="path214"
         inkscape:connector-curvature="0" /></clipPath><clipPath
       clipPathUnits="userSpaceOnUse"
       id="clipPath226"><path
         d="m 1.000031,2 743.999899,0 0,297 -743.999899,0 0,-297 z"
         id="path228"
         inkscape:connector-curvature="0" /></clipPath><clipPath
       clipPathUnits="userSpaceOnUse"
       id="clipPath240"><path
         d="m 1.000031,2 743.999899,0 0,297 -743.999899,0 0,-297 z"
         id="path242"
         inkscape:connector-curvature="0" /></clipPath><clipPath
       clipPathUnits="userSpaceOnUse"
       id="clipPath254"><path
         d="m 1.000031,2 743.999899,0 0,297 -743.999899,0 0,-297 z"
         id="path256"
         inkscape:connector-curvature="0" /></clipPath><clipPath
       clipPathUnits="userSpaceOnUse"
       id="clipPath268"><path
         d="m 1.000031,2 743.999899,0 0,297 -743.999899,0 0,-297 z"
         id="path270"
         inkscape:connector-curvature="0" /></clipPath><clipPath
       clipPathUnits="userSpaceOnUse"
       id="clipPath282"><path
         d="m 1.000031,2 743.999899,0 0,297 -743.999899,0 0,-297 z"
         id="path284"
         inkscape:connector-curvature="0" /></clipPath><clipPath
       clipPathUnits="userSpaceOnUse"
       id="clipPath296"><path
         d="m 1.000031,2 743.999899,0 0,297 -743.999899,0 0,-297 z"
         id="path298"
         inkscape:connector-curvature="0" /></clipPath><clipPath
       clipPathUnits="userSpaceOnUse"
       id="clipPath310"><path
         d="m 1.000031,2 743.999899,0 0,297 -743.999899,0 0,-297 z"
         id="path312"
         inkscape:connector-curvature="0" /></clipPath><clipPath
       clipPathUnits="userSpaceOnUse"
       id="clipPath324"><path
         d="m 1.000031,2 743.999899,0 0,297 -743.999899,0 0,-297 z"
         id="path326"
         inkscape:connector-curvature="0" /></clipPath><clipPath
       clipPathUnits="userSpaceOnUse"
       id="clipPath338"><path
         d="m 1.000031,2 743.999899,0 0,297 -743.999899,0 0,-297 z"
         id="path340"
         inkscape:connector-curvature="0" /></clipPath><clipPath
       clipPathUnits="userSpaceOnUse"
       id="clipPath352"><path
         d="m 1.000031,2 743.999899,0 0,297 -743.999899,0 0,-297 z"
         id="path354"
         inkscape:connector-curvature="0" /></clipPath><clipPath
       clipPathUnits="userSpaceOnUse"
       id="clipPath366"><path
         d="m 1.000031,2 743.999899,0 0,297 -743.999899,0 0,-297 z"
         id="path368"
         inkscape:connector-curvature="0" /></clipPath><clipPath
       clipPathUnits="userSpaceOnUse"
       id="clipPath380"><path
         d="m 1.000031,2 743.999899,0 0,297 -743.999899,0 0,-297 z"
         id="path382"
         inkscape:connector-curvature="0" /></clipPath><clipPath
       clipPathUnits="userSpaceOnUse"
       id="clipPath394"><path
         d="m 1.000031,2 743.999899,0 0,297 -743.999899,0 0,-297 z"
         id="path396"
         inkscape:connector-curvature="0" /></clipPath><clipPath
       clipPathUnits="userSpaceOnUse"
       id="clipPath408"><path
         d="m 1.000031,2 743.999899,0 0,297 -743.999899,0 0,-297 z"
         id="path410"
         inkscape:connector-curvature="0" /></clipPath><clipPath
       clipPathUnits="userSpaceOnUse"
       id="clipPath422"><path
         d="m 1.000031,2 743.999899,0 0,297 -743.999899,0 0,-297 z"
         id="path424"
         inkscape:connector-curvature="0" /></clipPath><clipPath
       clipPathUnits="userSpaceOnUse"
       id="clipPath436"><path
         d="m 1.000031,2 743.999899,0 0,297 -743.999899,0 0,-297 z"
         id="path438"
         inkscape:connector-curvature="0" /></clipPath><clipPath
       clipPathUnits="userSpaceOnUse"
       id="clipPath450"><path
         d="m 1.000031,2 743.999899,0 0,297 -743.999899,0 0,-297 z"
         id="path452"
         inkscape:connector-curvature="0" /></clipPath><clipPath
       clipPathUnits="userSpaceOnUse"
       id="clipPath464"><path
         d="m 1.000031,2 743.999899,0 0,297 -743.999899,0 0,-297 z"
         id="path466"
         inkscape:connector-curvature="0" /></clipPath><clipPath
       clipPathUnits="userSpaceOnUse"
       id="clipPath478"><path
         d="m 1.000031,2 743.999899,0 0,297 -743.999899,0 0,-297 z"
         id="path480"
         inkscape:connector-curvature="0" /></clipPath><clipPath
       clipPathUnits="userSpaceOnUse"
       id="clipPath492"><path
         d="m 1.000031,2 743.999899,0 0,297 -743.999899,0 0,-297 z"
         id="path494"
         inkscape:connector-curvature="0" /></clipPath><clipPath
       clipPathUnits="userSpaceOnUse"
       id="clipPath506"><path
         d="m 1.000031,2 743.999899,0 0,297 -743.999899,0 0,-297 z"
         id="path508"
         inkscape:connector-curvature="0" /></clipPath><clipPath
       clipPathUnits="userSpaceOnUse"
       id="clipPath520"><path
         d="m 1.000031,2 743.999899,0 0,297 -743.999899,0 0,-297 z"
         id="path522"
         inkscape:connector-curvature="0" /></clipPath><clipPath
       clipPathUnits="userSpaceOnUse"
       id="clipPath534"><path
         d="m 1.000031,2 743.999899,0 0,297 -743.999899,0 0,-297 z"
         id="path536"
         inkscape:connector-curvature="0" /></clipPath><clipPath
       clipPathUnits="userSpaceOnUse"
       id="clipPath548"><path
         d="m 1.000031,2 743.999899,0 0,297 -743.999899,0 0,-297 z"
         id="path550"
         inkscape:connector-curvature="0" /></clipPath><clipPath
       clipPathUnits="userSpaceOnUse"
       id="clipPath562"><path
         d="m 1.000031,2 743.999899,0 0,297 -743.999899,0 0,-297 z"
         id="path564"
         inkscape:connector-curvature="0" /></clipPath><clipPath
       clipPathUnits="userSpaceOnUse"
       id="clipPath576"><path
         d="m 1.000031,2 743.999899,0 0,297 -743.999899,0 0,-297 z"
         id="path578"
         inkscape:connector-curvature="0" /></clipPath><clipPath
       clipPathUnits="userSpaceOnUse"
       id="clipPath586"><path
         d="m 1.000031,2 743.999899,0 0,297 -743.999899,0 0,-297 z"
         id="path588"
         inkscape:connector-curvature="0" /></clipPath><clipPath
       clipPathUnits="userSpaceOnUse"
       id="clipPath600"><path
         d="m 1.000031,2 743.999899,0 0,297 -743.999899,0 0,-297 z"
         id="path602"
         inkscape:connector-curvature="0" /></clipPath><clipPath
       clipPathUnits="userSpaceOnUse"
       id="clipPath610"><path
         d="m 1.000031,2 743.999899,0 0,297 -743.999899,0 0,-297 z"
         id="path612"
         inkscape:connector-curvature="0" /></clipPath><clipPath
       clipPathUnits="userSpaceOnUse"
       id="clipPath624"><path
         d="m 1.000031,2 743.999899,0 0,297 -743.999899,0 0,-297 z"
         id="path626"
         inkscape:connector-curvature="0" /></clipPath><clipPath
       clipPathUnits="userSpaceOnUse"
       id="clipPath634"><path
         d="m 1.000031,2 743.999899,0 0,297 -743.999899,0 0,-297 z"
         id="path636"
         inkscape:connector-curvature="0" /></clipPath><clipPath
       clipPathUnits="userSpaceOnUse"
       id="clipPath648"><path
         d="m 1.000031,2 743.999899,0 0,297 -743.999899,0 0,-297 z"
         id="path650"
         inkscape:connector-curvature="0" /></clipPath><clipPath
       clipPathUnits="userSpaceOnUse"
       id="clipPath658"><path
         d="m 1.000031,2 743.999899,0 0,297 -743.999899,0 0,-297 z"
         id="path660"
         inkscape:connector-curvature="0" /></clipPath><clipPath
       clipPathUnits="userSpaceOnUse"
       id="clipPath672"><path
         d="m 1.000031,2 743.999899,0 0,297 -743.999899,0 0,-297 z"
         id="path674"
         inkscape:connector-curvature="0" /></clipPath><clipPath
       clipPathUnits="userSpaceOnUse"
       id="clipPath682"><path
         d="m 1.000031,2 743.999899,0 0,297 -743.999899,0 0,-297 z"
         id="path684"
         inkscape:connector-curvature="0" /></clipPath><clipPath
       clipPathUnits="userSpaceOnUse"
       id="clipPath696"><path
         d="m 1.000031,2 743.999899,0 0,297 -743.999899,0 0,-297 z"
         id="path698"
         inkscape:connector-curvature="0" /></clipPath><clipPath
       clipPathUnits="userSpaceOnUse"
       id="clipPath706"><path
         d="m 1.000031,2 743.999899,0 0,297 -743.999899,0 0,-297 z"
         id="path708"
         inkscape:connector-curvature="0" /></clipPath><clipPath
       clipPathUnits="userSpaceOnUse"
       id="clipPath720"><path
         d="M 0,0 747,0 747,300 0,300 0,0 Z"
         id="path722"
         inkscape:connector-curvature="0" /></clipPath></defs><sodipodi:namedview
     pagecolor="#ffffff"
     bordercolor="#666666"
     borderopacity="1"
     objecttolerance="10"
     gridtolerance="10"
     guidetolerance="10"
     inkscape:pageopacity="0"
     inkscape:pageshadow="2"
     inkscape:window-width="1855"
     inkscape:window-height="1056"
     id="namedview4"
     showgrid="false"
     inkscape:zoom="1.2788218"
     inkscape:cx="509.07322"
     inkscape:cy="141.05991"
     inkscape:window-x="65"
     inkscape:window-y="24"
     inkscape:window-maximized="1"
     inkscape:current-layer="g4461"
     fit-margin-top="0"
     fit-margin-left="0"
     fit-margin-right="0"
     fit-margin-bottom="0" /><g
     id="g10"
     inkscape:groupmode="layer"
     inkscape:label="domino-time-active"
     transform="matrix(1.25,0,0,-1.25,32.622945,315.98966)"><g
       id="g12" /><g
       id="g26"><g
         id="g28"
         clip-path="url(#clipPath30)" /></g><g
       id="g4461"
       transform="translate(1.9086548,-4.5582704)"><path
         d="m 39.015792,86.259607 598.733798,-7.6e-5"
         style="fill:none;stroke:#000000;stroke-width:0.8176;stroke-linecap:butt;stroke-linejoin:round;stroke-miterlimit:10;stroke-dasharray:none;stroke-opacity:1;marker-end:url(#Arrow2Lend)"
         id="path142"
         inkscape:connector-curvature="0" /><g
         id="g7483"><text
           id="text274"
           style="font-style:italic;font-variant:normal;font-weight:normal;font-stretch:normal;font-size:12px;font-family:FlamaBook;-inkscape-font-specification:'FlamaBook Italic';writing-mode:lr-tb;fill:#000000;fill-opacity:1;fill-rule:nonzero;stroke:none"
           transform="matrix(0.70710678,0.70710678,0.70710678,-0.70710678,0,0)"
           x="65.96653"
           y="-8.2530518"><tspan
             id="tspan276"
             sodipodi:role="line"
             y="-8.2530518"
             x="65.96653">run 1.1</tspan></text>
<text
           id="text288"
           style="font-style:italic;font-variant:normal;font-weight:normal;font-stretch:normal;font-size:12px;font-family:FlamaBook;-inkscape-font-specification:'FlamaBook Italic';writing-mode:lr-tb;fill:#000000;fill-opacity:1;fill-rule:nonzero;stroke:none"
           transform="matrix(0.70710678,0.70710678,0.70710678,-0.70710678,0,0)"
           x="95.128059"
           y="21.166483"><tspan
             id="tspan290"
             sodipodi:role="line"
             y="21.166483"
             x="95.128059">run 1.2</tspan></text>
<text
           id="text302"
           style="font-style:italic;font-variant:normal;font-weight:normal;font-stretch:normal;font-size:12px;font-family:FlamaBook;-inkscape-font-specification:'FlamaBook Italic';writing-mode:lr-tb;fill:#000000;fill-opacity:1;fill-rule:nonzero;stroke:none"
           transform="matrix(0.70710678,0.70710678,0.70710678,-0.70710678,0,0)"
           x="124.4426"
           y="50.565018"><tspan
             id="tspan304"
             sodipodi:role="line"
             y="50.565018"
             x="124.4426">run 1.3</tspan></text>
<text
           id="text316"
           style="font-style:italic;font-variant:normal;font-weight:normal;font-stretch:normal;font-size:12px;font-family:FlamaBook;-inkscape-font-specification:'FlamaBook Italic';writing-mode:lr-tb;fill:#000000;fill-opacity:1;fill-rule:nonzero;stroke:none"
           transform="matrix(0.70710678,0.70710678,0.70710678,-0.70710678,0,0)"
           x="153.80511"
           y="80.005569"><tspan
             id="tspan318"
             sodipodi:role="line"
             y="80.005569"
             x="153.80511">run 1.4</tspan></text>
<text
           id="text330"
           style="font-style:italic;font-variant:normal;font-weight:normal;font-stretch:normal;font-size:12px;font-family:FlamaBook;-inkscape-font-specification:'FlamaBook Italic';writing-mode:lr-tb;fill:#000000;fill-opacity:1;fill-rule:nonzero;stroke:none"
           transform="matrix(0.70710678,0.70710678,0.70710678,-0.70710678,0,0)"
           x="183.13167"
           y="109.40411"><tspan
             id="tspan332"
             sodipodi:role="line"
             y="109.40411"
             x="183.13167">run 1.5</tspan></text>
<text
           id="text344"
           style="font-style:italic;font-variant:normal;font-weight:normal;font-stretch:normal;font-size:12px;font-family:FlamaBook;-inkscape-font-specification:'FlamaBook Italic';writing-mode:lr-tb;fill:#000000;fill-opacity:1;fill-rule:nonzero;stroke:none"
           transform="matrix(0.70710678,0.70710678,0.70710678,-0.70710678,0,0)"
           x="213.06421"
           y="138.84464"><tspan
             id="tspan346"
             sodipodi:role="line"
             y="138.84464"
             x="213.06421">run 2.1</tspan></text>
<text
           id="text358"
           style="font-style:italic;font-variant:normal;font-weight:normal;font-stretch:normal;font-size:12px;font-family:FlamaBook;-inkscape-font-specification:'FlamaBook Italic';writing-mode:lr-tb;fill:#000000;fill-opacity:1;fill-rule:nonzero;stroke:none"
           transform="matrix(0.70710678,0.70710678,0.70710678,-0.70710678,0,0)"
           x="242.22575"
           y="168.26418"><tspan
             id="tspan360"
             sodipodi:role="line"
             y="168.26418"
             x="242.22575">run 2.2</tspan></text>
</g><g
         transform="translate(-41.6,0)"
         id="g7499"><text
           id="text372"
           style="font-style:italic;font-variant:normal;font-weight:normal;font-stretch:normal;font-size:12px;font-family:FlamaBook;-inkscape-font-specification:'FlamaBook Italic';writing-mode:lr-tb;fill:#000000;fill-opacity:1;fill-rule:nonzero;stroke:none"
           transform="matrix(0.70710678,0.70710678,0.70710678,-0.70710678,0,0)"
           x="299.47086"
           y="225.59326"><tspan
             id="tspan374"
             sodipodi:role="line"
             y="225.59326"
             x="299.47086">run 2.3</tspan></text>
<text
           id="text386"
           style="font-style:italic;font-variant:normal;font-weight:normal;font-stretch:normal;font-size:12px;font-family:FlamaBook;-inkscape-font-specification:'FlamaBook Italic';writing-mode:lr-tb;fill:#000000;fill-opacity:1;fill-rule:nonzero;stroke:none"
           transform="matrix(0.70710678,0.70710678,0.70710678,-0.70710678,0,0)"
           x="328.82336"
           y="255.02382"><tspan
             id="tspan388"
             sodipodi:role="line"
             y="255.02382"
             x="328.82336">run 2.4</tspan></text>
<text
           id="text400"
           style="font-style:italic;font-variant:normal;font-weight:normal;font-stretch:normal;font-size:12px;font-family:FlamaBook;-inkscape-font-specification:'FlamaBook Italic';writing-mode:lr-tb;fill:#000000;fill-opacity:1;fill-rule:nonzero;stroke:none"
           transform="matrix(0.70710678,0.70710678,0.70710678,-0.70710678,0,0)"
           x="358.13986"
           y="284.41229"><tspan
             id="tspan402"
             sodipodi:role="line"
             y="284.41229"
             x="358.13986">run 2.5</tspan></text>
<text
           id="text414"
           style="font-style:italic;font-variant:normal;font-weight:normal;font-stretch:normal;font-size:12px;font-family:FlamaBook;-inkscape-font-specification:'FlamaBook Italic';writing-mode:lr-tb;fill:#000000;fill-opacity:1;fill-rule:nonzero;stroke:none"
           transform="matrix(0.70710678,0.70710678,0.70710678,-0.70710678,0,0)"
           x="387.38184"
           y="313.80942"><tspan
             id="tspan416"
             sodipodi:role="line"
             y="313.80942"
             x="387.38184">run 2.6</tspan></text>
<text
           id="text428"
           style="font-style:italic;font-variant:normal;font-weight:normal;font-stretch:normal;font-size:12px;font-family:FlamaBook;-inkscape-font-specification:'FlamaBook Italic';writing-mode:lr-tb;fill:#000000;fill-opacity:1;fill-rule:nonzero;stroke:none"
           transform="matrix(0.70710678,0.70710678,0.70710678,-0.70710678,0,0)"
           x="416.67993"
           y="343.22836"><tspan
             id="tspan430"
             sodipodi:role="line"
             y="343.22836"
             x="416.67993">run 2.7</tspan></text>
<text
           id="text442"
           style="font-style:italic;font-variant:normal;font-weight:normal;font-stretch:normal;font-size:12px;font-family:FlamaBook;-inkscape-font-specification:'FlamaBook Italic';writing-mode:lr-tb;fill:#000000;fill-opacity:1;fill-rule:nonzero;stroke:none"
           transform="matrix(0.70710678,0.70710678,0.70710678,-0.70710678,0,0)"
           x="446.35645"
           y="372.64087"><tspan
             id="tspan444"
             sodipodi:role="line"
             y="372.64087"
             x="446.35645">run 2.8</tspan></text>
<text
           id="text456"
           style="font-style:italic;font-variant:normal;font-weight:normal;font-stretch:normal;font-size:12px;font-family:FlamaBook;-inkscape-font-specification:'FlamaBook Italic';writing-mode:lr-tb;fill:#000000;fill-opacity:1;fill-rule:nonzero;stroke:none"
           transform="matrix(0.70710678,0.70710678,0.70710678,-0.70710678,0,0)"
           x="475.73453"
           y="402.02786"><tspan
             id="tspan458"
             sodipodi:role="line"
             y="402.02786"
             x="475.73453">run 2.9</tspan></text>
</g><g
         transform="translate(-19.361235,-1.1453616)"
         id="g530"><text
           y="-24.388124"
           x="140.49409"
           id="text540"
           style="font-variant:normal;font-weight:normal;font-size:14px;font-family:FlamaBook;-inkscape-font-specification:FlamaBook;writing-mode:lr-tb;fill:#000000;fill-opacity:1;fill-rule:nonzero;stroke:none"
           transform="scale(1,-1)"><tspan
             id="tspan542"
             sodipodi:role="line"
             y="-24.388124"
             x="140.49409">expected behaviour</tspan></text>
</g><text
         y="-30.571764"
         x="361.91766"
         transform="scale(1,-1)"
         style="font-variant:normal;font-weight:normal;font-size:14px;font-family:FlamaBook;-inkscape-font-specification:FlamaBook;text-align:center;writing-mode:lr-tb;text-anchor:middle;fill:#000000;fill-opacity:1;fill-rule:nonzero;stroke:none"
         id="text554"><tspan
           x="361.91766"
           y="-30.571764"
           sodipodi:role="line"
           id="tspan556">unexpected</tspan><tspan
           id="tspan7457"
           x="361.91766"
           y="-13.071764"
           sodipodi:role="line">behaviour</tspan></text>
<text
         id="text7465"
         style="font-variant:normal;font-weight:normal;font-size:14px;font-family:FlamaBook;-inkscape-font-specification:FlamaBook;text-align:center;writing-mode:lr-tb;text-anchor:middle;fill:#000000;fill-opacity:1;fill-rule:nonzero;stroke:none"
         transform="scale(1,-1)"
         x="443.44711"
         y="-30.571764"><tspan
           id="tspan7467"
           sodipodi:role="line"
           y="-30.571764"
           x="443.44711">expected</tspan><tspan
           sodipodi:role="line"
           y="-13.071764"
           x="443.44711"
           id="tspan7469">behaviour</tspan></text>
<text
         id="text7471"
         style="font-variant:normal;font-weight:normal;font-size:14px;font-family:FlamaBook;-inkscape-font-specification:FlamaBook;text-align:center;writing-mode:lr-tb;text-anchor:middle;fill:#000000;fill-opacity:1;fill-rule:nonzero;stroke:none"
         transform="scale(1,-1)"
         x="525.12177"
         y="-30.571764"><tspan
           id="tspan7473"
           sodipodi:role="line"
           y="-30.571764"
           x="525.12177">unexpected</tspan><tspan
           sodipodi:role="line"
           y="-13.071764"
           x="525.12177"
           id="tspan7475">behaviour</tspan></text>
<text
         y="-30.571764"
         x="592.68396"
         transform="scale(1,-1)"
         style="font-variant:normal;font-weight:normal;font-size:14px;font-family:FlamaBook;-inkscape-font-specification:FlamaBook;text-align:center;writing-mode:lr-tb;text-anchor:middle;fill:#000000;fill-opacity:1;fill-rule:nonzero;stroke:none"
         id="text7477"><tspan
           x="592.68396"
           y="-30.571764"
           sodipodi:role="line"
           id="tspan7479">expected</tspan><tspan
           id="tspan7481"
           x="592.68396"
           y="-13.071764"
           sodipodi:role="line">behaviour</tspan></text>
<g
         id="g8569"
         style="display:inline;enable-background:new"
         transform="matrix(0.8,0,0,-0.8,-46.484044,238.6923)"><path
           sodipodi:nodetypes="cccc"
           style="fill:none;stroke:#000000;stroke-width:1px;stroke-linecap:butt;stroke-linejoin:miter;stroke-opacity:1"
           d="m 658.12596,234.92977 0,8.96411 -89.78887,0 0,-9.02773"
           id="path8502"
           inkscape:connector-curvature="0" /></g><g
         transform="matrix(0.8,0,0,-0.8,-129.06005,238.6923)"
         style="display:inline;enable-background:new"
         id="g7542"><path
           inkscape:connector-curvature="0"
           id="path7544"
           d="m 658.12596,234.92977 0,8.96411 -89.78887,0 0,-9.02773"
           style="fill:none;stroke:#000000;stroke-width:1px;stroke-linecap:butt;stroke-linejoin:miter;stroke-opacity:1"
           sodipodi:nodetypes="cccc" /></g><g
         transform="matrix(0.8,0,0,-0.8,33.696993,238.6923)"
         style="display:inline;enable-background:new"
         id="g7550"><path
           inkscape:connector-curvature="0"
           id="path7552"
           d="m 658.12596,234.92977 0,8.96411 -85.78887,0 0,-9.02773"
           style="fill:none;stroke:#000000;stroke-width:1px;stroke-linecap:butt;stroke-linejoin:miter;stroke-opacity:1"
           sodipodi:nodetypes="cccc" /></g><g
         id="g7558"
         style="display:inline;enable-background:new"
         transform="matrix(0.8,0,0,-0.8,-318.43842,238.6923)"><path
           sodipodi:nodetypes="cccc"
           style="fill:none;stroke:#000000;stroke-width:1px;stroke-linecap:butt;stroke-linejoin:miter;stroke-opacity:1"
           d="m 792.48944,234.92977 0,8.96411 -349.11592,0 0,-9.02773"
           id="path7560"
           inkscape:connector-curvature="0" /></g><g
         id="g4282"
         style="display:inline;enable-background:new"
         transform="matrix(0.8,0,0,-0.8,76.89699,238.6923)"><path
           sodipodi:nodetypes="cccc"
           style="fill:none;stroke:#000000;stroke-width:1px;stroke-linecap:butt;stroke-linejoin:miter;stroke-opacity:1"
           d="m 658.12596,234.92977 0,8.96411 -35.78887,0 0,-9.02773"
           id="path4284"
           inkscape:connector-curvature="0" /></g><path
         sodipodi:nodetypes="cc"
         style="fill:none;stroke:#000000;stroke-width:0.63896507;stroke-linecap:butt;stroke-linejoin:miter;stroke-miterlimit:4;stroke-dasharray:1.27793012, 0.63896506;stroke-dashoffset:0;stroke-opacity:1"
         d="m 245.47906,87.457664 0,22.552846"
         id="path4573"
         inkscape:connector-curvature="0" /><g
         id="g4683"
         transform="translate(-19.361235,-21.163788)"><text
           transform="scale(1,-1)"
           style="font-variant:normal;font-weight:normal;font-size:11.42296219px;font-family:FlamaBook;-inkscape-font-specification:FlamaBook;writing-mode:lr-tb;fill:#000000;fill-opacity:1;fill-rule:nonzero;stroke:none"
           id="text4685"
           x="128.20683"
           y="-29.931601"><tspan
             x="128.20683"
             y="-29.931601"
             sodipodi:role="line"
             id="tspan4687"
             style="font-style:normal">(sets children's expectations)</tspan></text>
</g><text
         xml:space="preserve"
         style="font-style:normal;font-weight:normal;font-size:14.29279804px;line-height:125%;font-family:sans-serif;letter-spacing:0px;word-spacing:0px;fill:#000000;fill-opacity:1;stroke:none;stroke-width:1px;stroke-linecap:butt;stroke-linejoin:miter;stroke-opacity:1"
         x="186.53769"
         y="-120.02599"
         id="text9414"
         sodipodi:linespacing="125%"
         transform="scale(1.0659303,-0.93814765)"><tspan
           sodipodi:role="line"
           id="tspan9416"
           x="186.53769"
           y="-120.02599">first intervew</tspan></text>
<text
         xml:space="preserve"
         style="font-style:normal;font-weight:normal;font-size:32px;line-height:125%;font-family:sans-serif;letter-spacing:0px;word-spacing:0px;fill:#000000;fill-opacity:1;stroke:none;stroke-width:1px;stroke-linecap:butt;stroke-linejoin:miter;stroke-opacity:1"
         x="213.46526"
         y="-198.56926"
         id="text9418"
         sodipodi:linespacing="125%"
         transform="scale(1,-1)"><tspan
           sodipodi:role="line"
           id="tspan9420"
           x="213.46526"
           y="-198.56926" /></text>
<path
         sodipodi:nodetypes="cc"
         style="fill:none;stroke:#000000;stroke-width:0.63896507;stroke-linecap:butt;stroke-linejoin:miter;stroke-miterlimit:4;stroke-dasharray:1.27793012, 0.63896506;stroke-dashoffset:0;stroke-opacity:1"
         d="m 610.08033,89.077427 0,22.552853"
         id="path4573-5"
         inkscape:connector-curvature="0" /><text
         xml:space="preserve"
         style="font-style:normal;font-weight:normal;font-size:14.29279804px;line-height:125%;font-family:sans-serif;letter-spacing:0px;word-spacing:0px;fill:#000000;fill-opacity:1;stroke:none;stroke-width:1px;stroke-linecap:butt;stroke-linejoin:miter;stroke-opacity:1"
         x="500.43521"
         y="-121.64643"
         id="text9414-9"
         sodipodi:linespacing="125%"
         transform="scale(1.0659303,-0.93814765)"><tspan
           sodipodi:role="line"
           id="tspan9416-7"
           x="500.43521"
           y="-121.64643">second intervew</tspan></text>
</g></g></svg>