<?xml version="1.0" encoding="UTF-8" standalone="no"?>
<!-- Created with Inkscape (http://www.inkscape.org/) -->

<svg
   xmlns:dc="http://purl.org/dc/elements/1.1/"
   xmlns:cc="http://creativecommons.org/ns#"
   xmlns:rdf="http://www.w3.org/1999/02/22-rdf-syntax-ns#"
   xmlns:svg="http://www.w3.org/2000/svg"
   xmlns="http://www.w3.org/2000/svg"
   xmlns:xlink="http://www.w3.org/1999/xlink"
   xmlns:sodipodi="http://sodipodi.sourceforge.net/DTD/sodipodi-0.dtd"
   xmlns:inkscape="http://www.inkscape.org/namespaces/inkscape"
   id="svg2"
   version="1.1"
   inkscape:version="0.91 r13725"
   width="570.05402"
   height="360.89468"
   xml:space="preserve"
   sodipodi:docname="domino-intention.svg"><metadata
     id="metadata8"><rdf:RDF><cc:Work
         rdf:about=""><dc:format>image/svg+xml</dc:format><dc:type
           rdf:resource="http://purl.org/dc/dcmitype/StillImage" /><dc:title /></cc:Work></rdf:RDF></metadata><defs
     id="defs6"><pattern
       inkscape:collect="always"
       xlink:href="#Strips1_2"
       id="pattern5752"
       patternTransform="matrix(0.90407594,0.90816613,-12.656764,12.59976,5.6250002e-8,-3.1460096)" /><pattern
       inkscape:stockid="Stripes 1:2"
       id="Strips1_2"
       patternTransform="translate(0,0) scale(10,10)"
       height="1"
       width="3"
       patternUnits="userSpaceOnUse"
       inkscape:collect="always"><rect
         id="rect5039"
         height="2"
         width="1"
         y="-0.5"
         x="0"
         style="fill:black;stroke:none" /></pattern><clipPath
       clipPathUnits="userSpaceOnUse"
       id="clipPath18"><path
         d="M 0,0 360,0 360,308 0,308 0,0 Z"
         id="path20"
         inkscape:connector-curvature="0" /></clipPath><clipPath
       clipPathUnits="userSpaceOnUse"
       id="clipPath30"><path
         d="M 7.436844e-6,2 359.00001,2 l 0,305 -359.000002563156,0 0,-305 z"
         id="path32"
         inkscape:connector-curvature="0" /></clipPath><clipPath
       clipPathUnits="userSpaceOnUse"
       id="clipPath40"><path
         d="M 7.436844e-6,2 359.00001,2 l 0,305 -359.000002563156,0 0,-305 z"
         id="path42"
         inkscape:connector-curvature="0" /></clipPath><clipPath
       clipPathUnits="userSpaceOnUse"
       id="clipPath52"><path
         d="m 34.00001,60 222,0 0,202 -222,0 0,-202 z"
         id="path54"
         inkscape:connector-curvature="0" /></clipPath><clipPath
       clipPathUnits="userSpaceOnUse"
       id="clipPath62"><path
         d="m 34.00001,60 222,0 0,202 -222,0 0,-202 z"
         id="path64"
         inkscape:connector-curvature="0" /></clipPath><clipPath
       clipPathUnits="userSpaceOnUse"
       id="clipPath72"><path
         d="m 34.00001,60 222,0 0,202 -222,0 0,-202 z"
         id="path74"
         inkscape:connector-curvature="0" /></clipPath><clipPath
       clipPathUnits="userSpaceOnUse"
       id="clipPath82"><path
         d="M 7.436844e-6,2 359.00001,2 l 0,305 -359.000002563156,0 0,-305 z"
         id="path84"
         inkscape:connector-curvature="0" /></clipPath><clipPath
       clipPathUnits="userSpaceOnUse"
       id="clipPath94"><path
         d="M 7.436844e-6,2 359.00001,2 l 0,305 -359.000002563156,0 0,-305 z"
         id="path96"
         inkscape:connector-curvature="0" /></clipPath><clipPath
       clipPathUnits="userSpaceOnUse"
       id="clipPath106"><path
         d="M 7.436844e-6,2 359.00001,2 l 0,305 -359.000002563156,0 0,-305 z"
         id="path108"
         inkscape:connector-curvature="0" /></clipPath><clipPath
       clipPathUnits="userSpaceOnUse"
       id="clipPath118"><path
         d="M 7.436844e-6,2 359.00001,2 l 0,305 -359.000002563156,0 0,-305 z"
         id="path120"
         inkscape:connector-curvature="0" /></clipPath><clipPath
       clipPathUnits="userSpaceOnUse"
       id="clipPath130"><path
         d="M 7.436844e-6,2 359.00001,2 l 0,305 -359.000002563156,0 0,-305 z"
         id="path132"
         inkscape:connector-curvature="0" /></clipPath><clipPath
       clipPathUnits="userSpaceOnUse"
       id="clipPath142"><path
         d="M 7.436844e-6,2 359.00001,2 l 0,305 -359.000002563156,0 0,-305 z"
         id="path144"
         inkscape:connector-curvature="0" /></clipPath><clipPath
       clipPathUnits="userSpaceOnUse"
       id="clipPath156"><path
         d="M 7.436844e-6,2 359.00001,2 l 0,305 -359.000002563156,0 0,-305 z"
         id="path158"
         inkscape:connector-curvature="0" /></clipPath><clipPath
       clipPathUnits="userSpaceOnUse"
       id="clipPath170"><path
         d="M 7.436844e-6,2 359.00001,2 l 0,305 -359.000002563156,0 0,-305 z"
         id="path172"
         inkscape:connector-curvature="0" /></clipPath><clipPath
       clipPathUnits="userSpaceOnUse"
       id="clipPath184"><path
         d="M 7.436844e-6,2 359.00001,2 l 0,305 -359.000002563156,0 0,-305 z"
         id="path186"
         inkscape:connector-curvature="0" /></clipPath><clipPath
       clipPathUnits="userSpaceOnUse"
       id="clipPath198"><path
         d="M 7.436844e-6,2 359.00001,2 l 0,305 -359.000002563156,0 0,-305 z"
         id="path200"
         inkscape:connector-curvature="0" /></clipPath><clipPath
       clipPathUnits="userSpaceOnUse"
       id="clipPath212"><path
         d="M 7.436844e-6,2 359.00001,2 l 0,305 -359.000002563156,0 0,-305 z"
         id="path214"
         inkscape:connector-curvature="0" /></clipPath><clipPath
       clipPathUnits="userSpaceOnUse"
       id="clipPath226"><path
         d="M 7.436844e-6,2 359.00001,2 l 0,305 -359.000002563156,0 0,-305 z"
         id="path228"
         inkscape:connector-curvature="0" /></clipPath><clipPath
       clipPathUnits="userSpaceOnUse"
       id="clipPath240"><path
         d="M 7.436844e-6,2 359.00001,2 l 0,305 -359.000002563156,0 0,-305 z"
         id="path242"
         inkscape:connector-curvature="0" /></clipPath><clipPath
       clipPathUnits="userSpaceOnUse"
       id="clipPath254"><path
         d="M 7.436844e-6,2 359.00001,2 l 0,305 -359.000002563156,0 0,-305 z"
         id="path256"
         inkscape:connector-curvature="0" /></clipPath><clipPath
       clipPathUnits="userSpaceOnUse"
       id="clipPath268"><path
         d="M 7.436844e-6,2 359.00001,2 l 0,305 -359.000002563156,0 0,-305 z"
         id="path270"
         inkscape:connector-curvature="0" /></clipPath><clipPath
       clipPathUnits="userSpaceOnUse"
       id="clipPath282"><path
         d="M 7.436844e-6,2 359.00001,2 l 0,305 -359.000002563156,0 0,-305 z"
         id="path284"
         inkscape:connector-curvature="0" /></clipPath><clipPath
       clipPathUnits="userSpaceOnUse"
       id="clipPath296"><path
         d="M 7.436844e-6,2 359.00001,2 l 0,305 -359.000002563156,0 0,-305 z"
         id="path298"
         inkscape:connector-curvature="0" /></clipPath><clipPath
       clipPathUnits="userSpaceOnUse"
       id="clipPath310"><path
         d="M 7.436844e-6,2 359.00001,2 l 0,305 -359.000002563156,0 0,-305 z"
         id="path312"
         inkscape:connector-curvature="0" /></clipPath><clipPath
       clipPathUnits="userSpaceOnUse"
       id="clipPath324"><path
         d="M 7.436844e-6,2 359.00001,2 l 0,305 -359.000002563156,0 0,-305 z"
         id="path326"
         inkscape:connector-curvature="0" /></clipPath><clipPath
       clipPathUnits="userSpaceOnUse"
       id="clipPath338"><path
         d="M 7.436844e-6,2 359.00001,2 l 0,305 -359.000002563156,0 0,-305 z"
         id="path340"
         inkscape:connector-curvature="0" /></clipPath><clipPath
       clipPathUnits="userSpaceOnUse"
       id="clipPath352"><path
         d="M 7.436844e-6,2 359.00001,2 l 0,305 -359.000002563156,0 0,-305 z"
         id="path354"
         inkscape:connector-curvature="0" /></clipPath><clipPath
       clipPathUnits="userSpaceOnUse"
       id="clipPath366"><path
         d="M 7.436844e-6,2 359.00001,2 l 0,305 -359.000002563156,0 0,-305 z"
         id="path368"
         inkscape:connector-curvature="0" /></clipPath><clipPath
       clipPathUnits="userSpaceOnUse"
       id="clipPath380"><path
         d="M 7.436844e-6,2 359.00001,2 l 0,305 -359.000002563156,0 0,-305 z"
         id="path382"
         inkscape:connector-curvature="0" /></clipPath><clipPath
       clipPathUnits="userSpaceOnUse"
       id="clipPath394"><path
         d="M 7.436844e-6,2 359.00001,2 l 0,305 -359.000002563156,0 0,-305 z"
         id="path396"
         inkscape:connector-curvature="0" /></clipPath><clipPath
       clipPathUnits="userSpaceOnUse"
       id="clipPath408"><path
         d="M 7.436844e-6,2 359.00001,2 l 0,305 -359.000002563156,0 0,-305 z"
         id="path410"
         inkscape:connector-curvature="0" /></clipPath><clipPath
       clipPathUnits="userSpaceOnUse"
       id="clipPath422"><path
         d="M 7.436844e-6,2 359.00001,2 l 0,305 -359.000002563156,0 0,-305 z"
         id="path424"
         inkscape:connector-curvature="0" /></clipPath><clipPath
       clipPathUnits="userSpaceOnUse"
       id="clipPath436"><path
         d="M 7.436844e-6,2 359.00001,2 l 0,305 -359.000002563156,0 0,-305 z"
         id="path438"
         inkscape:connector-curvature="0" /></clipPath><clipPath
       clipPathUnits="userSpaceOnUse"
       id="clipPath450"><path
         d="M 7.436844e-6,2 359.00001,2 l 0,305 -359.000002563156,0 0,-305 z"
         id="path452"
         inkscape:connector-curvature="0" /></clipPath><clipPath
       clipPathUnits="userSpaceOnUse"
       id="clipPath464"><path
         d="M 7.436844e-6,2 359.00001,2 l 0,305 -359.000002563156,0 0,-305 z"
         id="path466"
         inkscape:connector-curvature="0" /></clipPath><clipPath
       clipPathUnits="userSpaceOnUse"
       id="clipPath478"><path
         d="M 7.436844e-6,2 359.00001,2 l 0,305 -359.000002563156,0 0,-305 z"
         id="path480"
         inkscape:connector-curvature="0" /></clipPath><clipPath
       clipPathUnits="userSpaceOnUse"
       id="clipPath492"><path
         d="M 7.436844e-6,2 359.00001,2 l 0,305 -359.000002563156,0 0,-305 z"
         id="path494"
         inkscape:connector-curvature="0" /></clipPath><clipPath
       clipPathUnits="userSpaceOnUse"
       id="clipPath506"><path
         d="M 7.436844e-6,2 359.00001,2 l 0,305 -359.000002563156,0 0,-305 z"
         id="path508"
         inkscape:connector-curvature="0" /></clipPath><clipPath
       clipPathUnits="userSpaceOnUse"
       id="clipPath520"><path
         d="M 7.436844e-6,2 359.00001,2 l 0,305 -359.000002563156,0 0,-305 z"
         id="path522"
         inkscape:connector-curvature="0" /></clipPath><clipPath
       clipPathUnits="userSpaceOnUse"
       id="clipPath534"><path
         d="M 7.436844e-6,2 359.00001,2 l 0,305 -359.000002563156,0 0,-305 z"
         id="path536"
         inkscape:connector-curvature="0" /></clipPath><clipPath
       clipPathUnits="userSpaceOnUse"
       id="clipPath548"><path
         d="M 7.436844e-6,2 359.00001,2 l 0,305 -359.000002563156,0 0,-305 z"
         id="path550"
         inkscape:connector-curvature="0" /></clipPath><clipPath
       clipPathUnits="userSpaceOnUse"
       id="clipPath562"><path
         d="M 7.436844e-6,2 359.00001,2 l 0,305 -359.000002563156,0 0,-305 z"
         id="path564"
         inkscape:connector-curvature="0" /></clipPath><clipPath
       clipPathUnits="userSpaceOnUse"
       id="clipPath572"><path
         d="M 7.436844e-6,2 359.00001,2 l 0,305 -359.000002563156,0 0,-305 z"
         id="path574"
         inkscape:connector-curvature="0" /></clipPath><clipPath
       clipPathUnits="userSpaceOnUse"
       id="clipPath586"><path
         d="M 7.436844e-6,2 359.00001,2 l 0,305 -359.000002563156,0 0,-305 z"
         id="path588"
         inkscape:connector-curvature="0" /></clipPath><clipPath
       clipPathUnits="userSpaceOnUse"
       id="clipPath596"><path
         d="M 7.436844e-6,2 359.00001,2 l 0,305 -359.000002563156,0 0,-305 z"
         id="path598"
         inkscape:connector-curvature="0" /></clipPath><clipPath
       clipPathUnits="userSpaceOnUse"
       id="clipPath610"><path
         d="M 7.436844e-6,2 359.00001,2 l 0,305 -359.000002563156,0 0,-305 z"
         id="path612"
         inkscape:connector-curvature="0" /></clipPath><clipPath
       clipPathUnits="userSpaceOnUse"
       id="clipPath620"><path
         d="M 7.436844e-6,2 359.00001,2 l 0,305 -359.000002563156,0 0,-305 z"
         id="path622"
         inkscape:connector-curvature="0" /></clipPath><clipPath
       clipPathUnits="userSpaceOnUse"
       id="clipPath634"><path
         d="M 0,0 360,0 360,308 0,308 0,0 Z"
         id="path636"
         inkscape:connector-curvature="0" /></clipPath><clipPath
       clipPathUnits="userSpaceOnUse"
       id="clipPath606"><path
         inkscape:connector-curvature="0"
         d="M 0,0 362,0 362,303 0,303 0,0 Z"
         id="path608" /></clipPath><clipPath
       clipPathUnits="userSpaceOnUse"
       id="clipPath592"><path
         inkscape:connector-curvature="0"
         d="M 1.286692e-5,2 360.00001,2 l 0,301 -359.99999713308,0 0,-301 z"
         id="path594" /></clipPath><clipPath
       clipPathUnits="userSpaceOnUse"
       id="clipPath582"><path
         inkscape:connector-curvature="0"
         d="M 1.286692e-5,2 360.00001,2 l 0,301 -359.99999713308,0 0,-301 z"
         id="path584" /></clipPath><clipPath
       clipPathUnits="userSpaceOnUse"
       id="clipPath568"><path
         inkscape:connector-curvature="0"
         d="M 1.286692e-5,2 360.00001,2 l 0,301 -359.99999713308,0 0,-301 z"
         id="path570" /></clipPath><clipPath
       clipPathUnits="userSpaceOnUse"
       id="clipPath558"><path
         inkscape:connector-curvature="0"
         d="M 1.286692e-5,2 360.00001,2 l 0,301 -359.99999713308,0 0,-301 z"
         id="path560" /></clipPath><clipPath
       clipPathUnits="userSpaceOnUse"
       id="clipPath544"><path
         inkscape:connector-curvature="0"
         d="M 1.286692e-5,2 360.00001,2 l 0,301 -359.99999713308,0 0,-301 z"
         id="path546" /></clipPath><clipPath
       clipPathUnits="userSpaceOnUse"
       id="clipPath534-7"><path
         inkscape:connector-curvature="0"
         d="M 1.286692e-5,2 360.00001,2 l 0,301 -359.99999713308,0 0,-301 z"
         id="path536-0" /></clipPath><clipPath
       clipPathUnits="userSpaceOnUse"
       id="clipPath520-0"><path
         inkscape:connector-curvature="0"
         d="M 1.286692e-5,2 360.00001,2 l 0,301 -359.99999713308,0 0,-301 z"
         id="path522-7" /></clipPath><clipPath
       clipPathUnits="userSpaceOnUse"
       id="clipPath506-9"><path
         inkscape:connector-curvature="0"
         d="M 1.286692e-5,2 360.00001,2 l 0,301 -359.99999713308,0 0,-301 z"
         id="path508-2" /></clipPath><clipPath
       clipPathUnits="userSpaceOnUse"
       id="clipPath492-3"><path
         inkscape:connector-curvature="0"
         d="M 1.286692e-5,2 360.00001,2 l 0,301 -359.99999713308,0 0,-301 z"
         id="path494-2" /></clipPath><clipPath
       clipPathUnits="userSpaceOnUse"
       id="clipPath478-0"><path
         inkscape:connector-curvature="0"
         d="M 1.286692e-5,2 360.00001,2 l 0,301 -359.99999713308,0 0,-301 z"
         id="path480-2" /></clipPath><clipPath
       clipPathUnits="userSpaceOnUse"
       id="clipPath464-1"><path
         inkscape:connector-curvature="0"
         d="M 1.286692e-5,2 360.00001,2 l 0,301 -359.99999713308,0 0,-301 z"
         id="path466-5" /></clipPath><clipPath
       clipPathUnits="userSpaceOnUse"
       id="clipPath450-2"><path
         inkscape:connector-curvature="0"
         d="M 1.286692e-5,2 360.00001,2 l 0,301 -359.99999713308,0 0,-301 z"
         id="path452-9" /></clipPath><clipPath
       clipPathUnits="userSpaceOnUse"
       id="clipPath436-6"><path
         inkscape:connector-curvature="0"
         d="M 1.286692e-5,2 360.00001,2 l 0,301 -359.99999713308,0 0,-301 z"
         id="path438-2" /></clipPath><clipPath
       clipPathUnits="userSpaceOnUse"
       id="clipPath422-2"><path
         inkscape:connector-curvature="0"
         d="M 1.286692e-5,2 360.00001,2 l 0,301 -359.99999713308,0 0,-301 z"
         id="path424-3" /></clipPath><clipPath
       clipPathUnits="userSpaceOnUse"
       id="clipPath408-9"><path
         inkscape:connector-curvature="0"
         d="M 1.286692e-5,2 360.00001,2 l 0,301 -359.99999713308,0 0,-301 z"
         id="path410-4" /></clipPath><clipPath
       clipPathUnits="userSpaceOnUse"
       id="clipPath394-0"><path
         inkscape:connector-curvature="0"
         d="M 1.286692e-5,2 360.00001,2 l 0,301 -359.99999713308,0 0,-301 z"
         id="path396-0" /></clipPath><clipPath
       clipPathUnits="userSpaceOnUse"
       id="clipPath380-1"><path
         inkscape:connector-curvature="0"
         d="M 1.286692e-5,2 360.00001,2 l 0,301 -359.99999713308,0 0,-301 z"
         id="path382-0" /></clipPath><clipPath
       clipPathUnits="userSpaceOnUse"
       id="clipPath366-3"><path
         inkscape:connector-curvature="0"
         d="M 1.286692e-5,2 360.00001,2 l 0,301 -359.99999713308,0 0,-301 z"
         id="path368-8" /></clipPath><clipPath
       clipPathUnits="userSpaceOnUse"
       id="clipPath352-6"><path
         inkscape:connector-curvature="0"
         d="M 1.286692e-5,2 360.00001,2 l 0,301 -359.99999713308,0 0,-301 z"
         id="path354-2" /></clipPath><clipPath
       clipPathUnits="userSpaceOnUse"
       id="clipPath338-7"><path
         inkscape:connector-curvature="0"
         d="M 1.286692e-5,2 360.00001,2 l 0,301 -359.99999713308,0 0,-301 z"
         id="path340-1" /></clipPath><clipPath
       clipPathUnits="userSpaceOnUse"
       id="clipPath324-0"><path
         inkscape:connector-curvature="0"
         d="M 1.286692e-5,2 360.00001,2 l 0,301 -359.99999713308,0 0,-301 z"
         id="path326-4" /></clipPath><clipPath
       clipPathUnits="userSpaceOnUse"
       id="clipPath310-3"><path
         inkscape:connector-curvature="0"
         d="M 1.286692e-5,2 360.00001,2 l 0,301 -359.99999713308,0 0,-301 z"
         id="path312-2" /></clipPath><clipPath
       clipPathUnits="userSpaceOnUse"
       id="clipPath296-3"><path
         inkscape:connector-curvature="0"
         d="M 1.286692e-5,2 360.00001,2 l 0,301 -359.99999713308,0 0,-301 z"
         id="path298-2" /></clipPath><clipPath
       clipPathUnits="userSpaceOnUse"
       id="clipPath282-4"><path
         inkscape:connector-curvature="0"
         d="M 1.286692e-5,2 360.00001,2 l 0,301 -359.99999713308,0 0,-301 z"
         id="path284-9" /></clipPath><clipPath
       clipPathUnits="userSpaceOnUse"
       id="clipPath268-6"><path
         inkscape:connector-curvature="0"
         d="M 1.286692e-5,2 360.00001,2 l 0,301 -359.99999713308,0 0,-301 z"
         id="path270-5" /></clipPath><clipPath
       clipPathUnits="userSpaceOnUse"
       id="clipPath254-1"><path
         inkscape:connector-curvature="0"
         d="M 1.286692e-5,2 360.00001,2 l 0,301 -359.99999713308,0 0,-301 z"
         id="path256-9" /></clipPath><clipPath
       clipPathUnits="userSpaceOnUse"
       id="clipPath240-0"><path
         inkscape:connector-curvature="0"
         d="M 1.286692e-5,2 360.00001,2 l 0,301 -359.99999713308,0 0,-301 z"
         id="path242-4" /></clipPath><clipPath
       clipPathUnits="userSpaceOnUse"
       id="clipPath226-9"><path
         inkscape:connector-curvature="0"
         d="M 1.286692e-5,2 360.00001,2 l 0,301 -359.99999713308,0 0,-301 z"
         id="path228-8" /></clipPath><clipPath
       clipPathUnits="userSpaceOnUse"
       id="clipPath212-8"><path
         inkscape:connector-curvature="0"
         d="M 1.286692e-5,2 360.00001,2 l 0,301 -359.99999713308,0 0,-301 z"
         id="path214-1" /></clipPath><clipPath
       clipPathUnits="userSpaceOnUse"
       id="clipPath198-1"><path
         inkscape:connector-curvature="0"
         d="M 1.286692e-5,2 360.00001,2 l 0,301 -359.99999713308,0 0,-301 z"
         id="path200-7" /></clipPath><clipPath
       clipPathUnits="userSpaceOnUse"
       id="clipPath184-7"><path
         inkscape:connector-curvature="0"
         d="M 1.286692e-5,2 360.00001,2 l 0,301 -359.99999713308,0 0,-301 z"
         id="path186-1" /></clipPath><clipPath
       clipPathUnits="userSpaceOnUse"
       id="clipPath170-0"><path
         inkscape:connector-curvature="0"
         d="M 1.286692e-5,2 360.00001,2 l 0,301 -359.99999713308,0 0,-301 z"
         id="path172-0" /></clipPath><clipPath
       clipPathUnits="userSpaceOnUse"
       id="clipPath156-3"><path
         inkscape:connector-curvature="0"
         d="M 1.286692e-5,2 360.00001,2 l 0,301 -359.99999713308,0 0,-301 z"
         id="path158-3" /></clipPath><clipPath
       clipPathUnits="userSpaceOnUse"
       id="clipPath142-9"><path
         inkscape:connector-curvature="0"
         d="M 1.286692e-5,2 360.00001,2 l 0,301 -359.99999713308,0 0,-301 z"
         id="path144-1" /></clipPath><clipPath
       clipPathUnits="userSpaceOnUse"
       id="clipPath130-5"><path
         inkscape:connector-curvature="0"
         d="M 1.286692e-5,2 360.00001,2 l 0,301 -359.99999713308,0 0,-301 z"
         id="path132-6" /></clipPath><clipPath
       clipPathUnits="userSpaceOnUse"
       id="clipPath118-4"><path
         inkscape:connector-curvature="0"
         d="M 1.286692e-5,2 360.00001,2 l 0,301 -359.99999713308,0 0,-301 z"
         id="path120-7" /></clipPath><clipPath
       clipPathUnits="userSpaceOnUse"
       id="clipPath106-2"><path
         inkscape:connector-curvature="0"
         d="M 1.286692e-5,2 360.00001,2 l 0,301 -359.99999713308,0 0,-301 z"
         id="path108-7" /></clipPath><clipPath
       clipPathUnits="userSpaceOnUse"
       id="clipPath94-0"><path
         inkscape:connector-curvature="0"
         d="M 1.286692e-5,2 360.00001,2 l 0,301 -359.99999713308,0 0,-301 z"
         id="path96-8" /></clipPath><clipPath
       clipPathUnits="userSpaceOnUse"
       id="clipPath82-2"><path
         inkscape:connector-curvature="0"
         d="M 1.286692e-5,2 360.00001,2 l 0,301 -359.99999713308,0 0,-301 z"
         id="path84-6" /></clipPath><clipPath
       clipPathUnits="userSpaceOnUse"
       id="clipPath72-7"><path
         inkscape:connector-curvature="0"
         d="m 34.00002,60 223,0 0,197 -223,0 0,-197 z"
         id="path74-0" /></clipPath><clipPath
       clipPathUnits="userSpaceOnUse"
       id="clipPath62-1"><path
         inkscape:connector-curvature="0"
         d="m 34.00002,60 223,0 0,197 -223,0 0,-197 z"
         id="path64-0" /></clipPath><clipPath
       clipPathUnits="userSpaceOnUse"
       id="clipPath52-0"><path
         inkscape:connector-curvature="0"
         d="m 34.00002,60 223,0 0,197 -223,0 0,-197 z"
         id="path54-3" /></clipPath><clipPath
       clipPathUnits="userSpaceOnUse"
       id="clipPath40-6"><path
         inkscape:connector-curvature="0"
         d="M 1.286692e-5,2 360.00001,2 l 0,301 -359.99999713308,0 0,-301 z"
         id="path42-9" /></clipPath><clipPath
       clipPathUnits="userSpaceOnUse"
       id="clipPath30-1"><path
         inkscape:connector-curvature="0"
         d="M 1.286692e-5,2 360.00001,2 l 0,301 -359.99999713308,0 0,-301 z"
         id="path32-4" /></clipPath><clipPath
       clipPathUnits="userSpaceOnUse"
       id="clipPath18-2"><path
         inkscape:connector-curvature="0"
         d="M 0,0 362,0 362,303 0,303 0,0 Z"
         id="path20-4" /></clipPath><pattern
       patternTransform="matrix(0.8501375,0.90722476,-11.901644,12.586699,47.883815,-2.9939471)"
       id="pattern5847"
       xlink:href="#pattern5830"
       inkscape:collect="always" /><pattern
       inkscape:collect="always"
       xlink:href="#pattern5752-7"
       id="pattern5830"
       patternTransform="matrix(0.90407594,0.90816613,-12.656764,12.59976,39.05308,-6.5088467)" /><pattern
       inkscape:collect="always"
       xlink:href="#Strips1_2-4"
       id="pattern5752-7"
       patternTransform="matrix(0.90407594,0.90816613,-12.656764,12.59976,0,0)" /><pattern
       inkscape:stockid="Stripes 1:2"
       id="Strips1_2-4"
       patternTransform="translate(0,0) scale(10,10)"
       height="1"
       width="3"
       patternUnits="userSpaceOnUse"
       inkscape:collect="always"><rect
         id="rect5039-7"
         height="2"
         width="1"
         y="-0.5"
         x="0"
         style="fill:black;stroke:none" /></pattern><pattern
       patternTransform="matrix(0.8501375,0.90722469,-11.901644,12.586699,392.14293,-24.050643)"
       id="pattern5882"
       xlink:href="#pattern5847-1"
       inkscape:collect="always" /><pattern
       patternTransform="matrix(0.8501375,0.90722476,-11.901644,12.586699,47.883815,0.15206248)"
       id="pattern5847-1"
       xlink:href="#pattern5830-6"
       inkscape:collect="always" /><pattern
       inkscape:collect="always"
       xlink:href="#pattern5752-7-2"
       id="pattern5830-6"
       patternTransform="matrix(0.90407594,0.90816613,-12.656764,12.59976,39.05308,-6.5088467)" /><pattern
       inkscape:collect="always"
       xlink:href="#Strips1_2-4-6"
       id="pattern5752-7-2"
       patternTransform="matrix(0.90407594,0.90816613,-12.656764,12.59976,0,0)" /><pattern
       inkscape:stockid="Stripes 1:2"
       id="Strips1_2-4-6"
       patternTransform="translate(0,0) scale(10,10)"
       height="1"
       width="3"
       patternUnits="userSpaceOnUse"
       inkscape:collect="always"><rect
         id="rect5039-7-3"
         height="2"
         width="1"
         y="-0.5"
         x="0"
         style="fill:black;stroke:none" /></pattern><pattern
       patternTransform="matrix(0.85013752,0.90722472,-11.901644,12.586699,374.54293,-24.050642)"
       id="pattern5920"
       xlink:href="#pattern5882-0"
       inkscape:collect="always" /><pattern
       patternTransform="matrix(0.8501375,0.90722469,-11.901644,12.586699,392.14293,-20.904633)"
       id="pattern5882-0"
       xlink:href="#pattern5847-1-9"
       inkscape:collect="always" /><pattern
       patternTransform="matrix(0.8501375,0.90722476,-11.901644,12.586699,47.883815,0.15206248)"
       id="pattern5847-1-9"
       xlink:href="#pattern5830-6-2"
       inkscape:collect="always" /><pattern
       inkscape:collect="always"
       xlink:href="#pattern5752-7-2-4"
       id="pattern5830-6-2"
       patternTransform="matrix(0.90407594,0.90816613,-12.656764,12.59976,39.05308,-6.5088467)" /><pattern
       inkscape:collect="always"
       xlink:href="#Strips1_2-4-6-3"
       id="pattern5752-7-2-4"
       patternTransform="matrix(0.90407594,0.90816613,-12.656764,12.59976,0,0)" /><pattern
       inkscape:stockid="Stripes 1:2"
       id="Strips1_2-4-6-3"
       patternTransform="translate(0,0) scale(10,10)"
       height="1"
       width="3"
       patternUnits="userSpaceOnUse"
       inkscape:collect="always"><rect
         id="rect5039-7-3-2"
         height="2"
         width="1"
         y="-0.5"
         x="0"
         style="fill:black;stroke:none" /></pattern><pattern
       patternTransform="matrix(0.85013753,0.90722469,-11.901644,12.586699,229.48103,-201.18051)"
       id="pattern5920-0"
       xlink:href="#pattern5882-5"
       inkscape:collect="always" /><pattern
       patternTransform="matrix(0.8501375,0.90722469,-11.901644,12.586699,392.14293,-20.904633)"
       id="pattern5882-5"
       xlink:href="#pattern5847-1-6"
       inkscape:collect="always" /><pattern
       patternTransform="matrix(0.8501375,0.90722476,-11.901644,12.586699,47.883815,0.15206248)"
       id="pattern5847-1-6"
       xlink:href="#pattern5830-6-7"
       inkscape:collect="always" /><pattern
       inkscape:collect="always"
       xlink:href="#pattern5752-7-2-1"
       id="pattern5830-6-7"
       patternTransform="matrix(0.90407594,0.90816613,-12.656764,12.59976,39.05308,-6.5088467)" /><pattern
       inkscape:collect="always"
       xlink:href="#Strips1_2-4-6-6"
       id="pattern5752-7-2-1"
       patternTransform="matrix(0.90407594,0.90816613,-12.656764,12.59976,0,0)" /><pattern
       inkscape:stockid="Stripes 1:2"
       id="Strips1_2-4-6-6"
       patternTransform="translate(0,0) scale(10,10)"
       height="1"
       width="3"
       patternUnits="userSpaceOnUse"
       inkscape:collect="always"><rect
         id="rect5039-7-3-8"
         height="2"
         width="1"
         y="-0.5"
         x="0"
         style="fill:black;stroke:none" /></pattern></defs><sodipodi:namedview
     pagecolor="#ffffff"
     bordercolor="#666666"
     borderopacity="1"
     objecttolerance="10"
     gridtolerance="10"
     guidetolerance="10"
     inkscape:pageopacity="0"
     inkscape:pageshadow="2"
     inkscape:window-width="2560"
     inkscape:window-height="1332"
     id="namedview4"
     showgrid="false"
     inkscape:zoom="1.8436446"
     inkscape:cx="-10.72546"
     inkscape:cy="156.31584"
     inkscape:window-x="1920"
     inkscape:window-y="54"
     inkscape:window-maximized="1"
     inkscape:current-layer="g10"
     fit-margin-top="0"
     fit-margin-left="0"
     fit-margin-right="0"
     fit-margin-bottom="0" /><g
     id="g10"
     inkscape:groupmode="layer"
     inkscape:label="domino-obey"
     transform="matrix(1.25,0,0,-1.25,-10.887561,389.14622)"><g
       id="g12" /><path
       inkscape:connector-curvature="0"
       id="path46"
       style="fill:none;stroke:#000000;stroke-width:0.80000001;stroke-linecap:butt;stroke-linejoin:round;stroke-miterlimit:10;stroke-dasharray:none;stroke-opacity:1"
       d="m 34.33082,93.000016 329.05745,0 m -329.05745,34.000004 329.05745,0 m -329.05745,33 329.05745,0 m -329.05745,34.00001 329.05745,0 m -329.05745,33.00001 329.05745,0 m -329.05745,33.99998 329.05745,0" /><path
       inkscape:connector-curvature="0"
       id="path88"
       style="fill:none;stroke:#000000;stroke-width:0.80000001;stroke-linecap:butt;stroke-linejoin:round;stroke-miterlimit:10;stroke-dasharray:none;stroke-opacity:1"
       d="m 34.97717,59.773086 8e-5,201.227024" /><path
       inkscape:connector-curvature="0"
       id="path100"
       style="fill:none;stroke:#000000;stroke-width:0.80000001;stroke-linecap:butt;stroke-linejoin:round;stroke-miterlimit:10;stroke-dasharray:none;stroke-opacity:1"
       d="m 30.800001,60.000015 4,0 m -4,33.000001 4,0 m -4,34.000004 4,0 m -4,33 4,0 m -4,34.00001 4,0 m -4,33.00001 4,0 m -4,33.99998 4,0" /><path
       inkscape:connector-curvature="0"
       id="path112"
       style="fill:none;stroke:#000000;stroke-width:0.80000001;stroke-linecap:butt;stroke-linejoin:round;stroke-miterlimit:10;stroke-dasharray:none;stroke-opacity:1"
       d="m 34.594934,59.77307 328.793336,-8e-5" /><g
       id="g5380"
       transform="translate(17.6,0)"><path
         inkscape:connector-curvature="0"
         style="fill:#6095c9;fill-opacity:1;fill-rule:nonzero;stroke:none"
         d="m 47.80001,134 18,0 0,-73.99999 -18,0 z"
         id="path5760" /><path
         id="path5339"
         d="m 47.80001,134 18,0 0,-73.99999 -18,0 z"
         style="opacity:0.41505378;fill:url(#pattern5752);fill-opacity:1;fill-rule:nonzero;stroke:none"
         inkscape:connector-curvature="0" /><path
         id="path5331"
         d="m 47.80001,154 18,0 0,-20 -18,0 z"
         style="fill:#cd665f;fill-opacity:1;fill-rule:nonzero;stroke:none"
         inkscape:connector-curvature="0" /><path
         id="path5335"
         d="m 47.80001,234 18,0 0,-80 -18,0 z"
         style="fill:#aac46c;fill-opacity:1;fill-rule:nonzero;stroke:none"
         inkscape:connector-curvature="0" /><text
         y="-91.064697"
         x="49.936661"
         transform="scale(1,-1)"
         style="font-variant:normal;font-weight:normal;font-size:14px;font-family:FlamaBook;-inkscape-font-specification:FlamaBook;writing-mode:lr-tb;fill:#000000;fill-opacity:1;fill-rule:nonzero;stroke:none"
         id="text148"><tspan
           x="49.936661"
           y="-91.064697"
           sodipodi:role="line"
           id="tspan150">11 </tspan></text>
<text
         y="-138.01759"
         x="53.30344"
         transform="scale(1,-1)"
         style="font-variant:normal;font-weight:normal;font-size:14px;font-family:FlamaBook;-inkscape-font-specification:FlamaBook;writing-mode:lr-tb;fill:#000000;fill-opacity:1;fill-rule:nonzero;stroke:none"
         id="text218"><tspan
           x="53.30344"
           y="-138.01759"
           sodipodi:role="line"
           id="tspan220">3 </tspan></text>
<text
         y="-188.3244"
         x="49.936661"
         transform="scale(1,-1)"
         style="font-variant:normal;font-weight:normal;font-size:14px;font-family:FlamaBook;-inkscape-font-specification:FlamaBook;writing-mode:lr-tb;fill:#000000;fill-opacity:1;fill-rule:nonzero;stroke:none"
         id="text288"><tspan
           x="49.936661"
           y="-188.3244"
           sodipodi:role="line"
           id="tspan290">12 </tspan></text>
</g><g
       id="g5369"
       transform="translate(33.6,0)"><path
         id="path56"
         d="m 92.80001,134 16.99999,0 0,-73.99999 -16.99999,0 z"
         style="fill:#6095c9;fill-opacity:1;fill-rule:nonzero;stroke:none"
         inkscape:connector-curvature="0" /><path
         id="path66"
         d="m 92.80001,160 16.99999,0 0,-26 -16.99999,0 z"
         style="fill:#cd665f;fill-opacity:1;fill-rule:nonzero;stroke:none"
         inkscape:connector-curvature="0" /><path
         id="path76"
         d="m 92.80001,234 16.99999,0 0,-74 -16.99999,0 z"
         style="fill:#aac46c;fill-opacity:1;fill-rule:nonzero;stroke:none"
         inkscape:connector-curvature="0" /><text
         y="-91.064697"
         x="94.046982"
         transform="scale(1,-1)"
         style="font-variant:normal;font-weight:normal;font-size:14px;font-family:FlamaBook;-inkscape-font-specification:FlamaBook;writing-mode:lr-tb;fill:#000000;fill-opacity:1;fill-rule:nonzero;stroke:none"
         id="text162"><tspan
           x="94.046982"
           y="-91.064697"
           sodipodi:role="line"
           id="tspan164">11 </tspan></text>
<text
         y="-141.3714"
         x="97.41375"
         transform="scale(1,-1)"
         style="font-variant:normal;font-weight:normal;font-size:14px;font-family:FlamaBook;-inkscape-font-specification:FlamaBook;writing-mode:lr-tb;fill:#000000;fill-opacity:1;fill-rule:nonzero;stroke:none"
         id="text232"><tspan
           x="97.41375"
           y="-141.3714"
           sodipodi:role="line"
           id="tspan234">4 </tspan></text>
<text
         y="-191.67821"
         x="94.046982"
         transform="scale(1,-1)"
         style="font-variant:normal;font-weight:normal;font-size:14px;font-family:FlamaBook;-inkscape-font-specification:FlamaBook;writing-mode:lr-tb;fill:#000000;fill-opacity:1;fill-rule:nonzero;stroke:none"
         id="text302"><tspan
           x="94.046982"
           y="-191.67821"
           sodipodi:role="line"
           id="tspan304">11 </tspan></text>
<path
         inkscape:connector-curvature="0"
         style="opacity:0.41505378;fill:url(#pattern5847);fill-opacity:1;fill-rule:nonzero;stroke:none"
         d="m 92.83201,134.01316 16.9261,0 0,-73.923283 -16.9261,0 z"
         id="path5828" /></g><text
       id="text358"
       style="font-variant:normal;font-weight:normal;font-size:14px;font-family:FlamaBook;-inkscape-font-specification:FlamaBook;writing-mode:lr-tb;fill:#000000;fill-opacity:1;fill-rule:nonzero;stroke:none"
       transform="scale(1,-1)"
       x="14.8957"
       y="-54.173"><tspan
         id="tspan360"
         sodipodi:role="line"
         y="-54.173"
         x="14.8957">0 </tspan></text>
<text
       id="text372"
       style="font-variant:normal;font-weight:normal;font-size:14px;font-family:FlamaBook;-inkscape-font-specification:FlamaBook;writing-mode:lr-tb;fill:#000000;fill-opacity:1;fill-rule:nonzero;stroke:none"
       transform="scale(1,-1)"
       x="14.8957"
       y="-87.710899"><tspan
         id="tspan374"
         sodipodi:role="line"
         y="-87.710899"
         x="14.8957">5 </tspan></text>
<text
       id="text386"
       style="font-variant:normal;font-weight:normal;font-size:14px;font-family:FlamaBook;-inkscape-font-specification:FlamaBook;writing-mode:lr-tb;fill:#000000;fill-opacity:1;fill-rule:nonzero;stroke:none"
       transform="scale(1,-1)"
       x="7.8000488"
       y="-121.2487"><tspan
         id="tspan388"
         sodipodi:role="line"
         y="-121.2487"
         x="7.8000488">10 </tspan></text>
<text
       id="text400"
       style="font-variant:normal;font-weight:normal;font-size:14px;font-family:FlamaBook;-inkscape-font-specification:FlamaBook;writing-mode:lr-tb;fill:#000000;fill-opacity:1;fill-rule:nonzero;stroke:none"
       transform="scale(1,-1)"
       x="7.8000488"
       y="-154.7865"><tspan
         id="tspan402"
         sodipodi:role="line"
         y="-154.7865"
         x="7.8000488">15 </tspan></text>
<text
       id="text414"
       style="font-variant:normal;font-weight:normal;font-size:14px;font-family:FlamaBook;-inkscape-font-specification:FlamaBook;writing-mode:lr-tb;fill:#000000;fill-opacity:1;fill-rule:nonzero;stroke:none"
       transform="scale(1,-1)"
       x="7.8000488"
       y="-188.3243"><tspan
         id="tspan416"
         sodipodi:role="line"
         y="-188.3243"
         x="7.8000488">20 </tspan></text>
<text
       id="text428"
       style="font-variant:normal;font-weight:normal;font-size:14px;font-family:FlamaBook;-inkscape-font-specification:FlamaBook;writing-mode:lr-tb;fill:#000000;fill-opacity:1;fill-rule:nonzero;stroke:none"
       transform="scale(1,-1)"
       x="7.8000488"
       y="-221.8622"><tspan
         id="tspan430"
         sodipodi:role="line"
         y="-221.8622"
         x="7.8000488">25 </tspan></text>
<text
       id="text442"
       style="font-variant:normal;font-weight:normal;font-size:14px;font-family:FlamaBook;-inkscape-font-specification:FlamaBook;writing-mode:lr-tb;fill:#000000;fill-opacity:1;fill-rule:nonzero;stroke:none"
       transform="scale(1,-1)"
       x="7.8000488"
       y="-255.39999"><tspan
         id="tspan444"
         sodipodi:role="line"
         y="-255.39999"
         x="7.8000488">30 </tspan></text>
<text
       id="text526"
       style="font-variant:normal;font-weight:normal;font-size:14px;font-family:FlamaBook;-inkscape-font-specification:FlamaBook;text-align:center;writing-mode:lr-tb;text-anchor:middle;fill:#000000;fill-opacity:1;fill-rule:nonzero;stroke:none"
       transform="scale(1,-1)"
       x="73.189789"
       y="-40.269226"><tspan
         id="tspan528"
         sodipodi:role="line"
         y="-40.269226"
         x="73.189789">ﬁrst</tspan><tspan
         sodipodi:role="line"
         y="-22.769226"
         x="74.830414"
         id="tspan5367">interview </tspan></text>
<g
       id="g544"
       transform="translate(29.455677,-1.8409798)"><text
         y="-299.0054"
         x="87.44709"
         transform="scale(1,-1)"
         style="font-variant:normal;font-weight:bold;font-size:18px;font-family:FlamaBook;-inkscape-font-specification:FlamaBook-Bold;writing-mode:lr-tb;fill:#000000;fill-opacity:1;fill-rule:nonzero;stroke:none"
         id="text554"><tspan
           x="9.8483849"
           y="-299.0054"
           sodipodi:role="line"
           id="tspan5423"
           style="text-anchor:middle;text-align:center">Does Ranger</tspan><tspan
           x="9.8483849"
           y="-276.5054"
           sodipodi:role="line"
           id="tspan5443"
           style="text-anchor:middle;text-align:center">always obey to you?</tspan></text>
</g><g
       id="g5391"
       transform="translate(-184.14,-4.9092796)"><path
         id="path5365"
         d="m 428.76718,78.220542 17,0 0,-13 -17,0 0,13 z"
         style="fill:#6095c9;fill-opacity:1;fill-rule:nonzero;stroke:none"
         inkscape:connector-curvature="0" /><path
         id="path5349"
         d="m 428.76718,215.22055 17,0 0,-137.000008 -17,0 0,137.000008 z"
         style="fill:#cd665f;fill-opacity:1;fill-rule:nonzero;stroke:none"
         inkscape:connector-curvature="0" /><path
         id="path5359"
         d="m 428.76718,235.22055 17,0 0,-20 -17,0 0,20 z"
         style="fill:#aac46c;fill-opacity:1;fill-rule:nonzero;stroke:none"
         inkscape:connector-curvature="0" /><text
         y="-65.74118"
         x="433.51062"
         transform="scale(1,-1)"
         style="font-variant:normal;font-weight:normal;font-size:14px;font-family:FlamaBook;-inkscape-font-specification:FlamaBook;writing-mode:lr-tb;fill:#000000;fill-opacity:1;fill-rule:nonzero;stroke:none"
         id="text148-7"><tspan
           x="433.51062"
           y="-65.74118"
           sodipodi:role="line"
           id="tspan150-5">2 </tspan></text>
<text
         y="-141.03815"
         x="430.06384"
         transform="scale(1,-1)"
         style="font-variant:normal;font-weight:normal;font-size:14px;font-family:FlamaBook;-inkscape-font-specification:FlamaBook;writing-mode:lr-tb;fill:#000000;fill-opacity:1;fill-rule:nonzero;stroke:none"
         id="text190-8"><tspan
           x="430.06384"
           y="-141.03815"
           sodipodi:role="line"
           id="tspan192-5">21 </tspan></text>
<text
         y="-219.60895"
         x="433.51062"
         transform="scale(1,-1)"
         style="font-variant:normal;font-weight:normal;font-size:14px;font-family:FlamaBook;-inkscape-font-specification:FlamaBook;writing-mode:lr-tb;fill:#000000;fill-opacity:1;fill-rule:nonzero;stroke:none"
         id="text260-2"><tspan
           x="433.51062"
           y="-219.60895"
           sodipodi:role="line"
           id="tspan262-7">3 </tspan></text>
<path
         inkscape:connector-curvature="0"
         style="opacity:0.41505378;fill:url(#pattern5882);fill-opacity:1;fill-rule:nonzero;stroke:none"
         d="m 428.73811,78.242611 16.9261,0 0,-12.957085 -16.9261,0 z"
         id="path5828-9" /></g><g
       id="g5402"
       transform="translate(-166.54,-4.9092796)"><path
         id="path5363"
         d="m 472.76718,78.220542 17.99999,0 0,-13 -17.99999,0 0,13 z"
         style="fill:#6095c9;fill-opacity:1;fill-rule:nonzero;stroke:none"
         inkscape:connector-curvature="0" /><path
         id="path5347"
         d="m 472.76718,182.22055 17.99999,0 0,-104.000008 -17.99999,0 0,104.000008 z"
         style="fill:#cd665f;fill-opacity:1;fill-rule:nonzero;stroke:none"
         inkscape:connector-curvature="0" /><path
         id="path5357"
         d="m 472.76718,235.22055 17.99999,0 0,-53 -17.99999,0 0,53 z"
         style="fill:#aac46c;fill-opacity:1;fill-rule:nonzero;stroke:none"
         inkscape:connector-curvature="0" /><text
         y="-65.74118"
         x="477.94095"
         transform="scale(1,-1)"
         style="font-variant:normal;font-weight:normal;font-size:14px;font-family:FlamaBook;-inkscape-font-specification:FlamaBook;writing-mode:lr-tb;fill:#000000;fill-opacity:1;fill-rule:nonzero;stroke:none"
         id="text162-9"><tspan
           x="477.94095"
           y="-65.74118"
           sodipodi:role="line"
           id="tspan164-5">2 </tspan></text>
<text
         y="-124.66925"
         x="474.49417"
         transform="scale(1,-1)"
         style="font-variant:normal;font-weight:normal;font-size:14px;font-family:FlamaBook;-inkscape-font-specification:FlamaBook;writing-mode:lr-tb;fill:#000000;fill-opacity:1;fill-rule:nonzero;stroke:none"
         id="text204-9"><tspan
           x="474.49417"
           y="-124.66925"
           sodipodi:role="line"
           id="tspan206-3">16 </tspan></text>
<text
         y="-203.24005"
         x="477.94095"
         transform="scale(1,-1)"
         style="font-variant:normal;font-weight:normal;font-size:14px;font-family:FlamaBook;-inkscape-font-specification:FlamaBook;writing-mode:lr-tb;fill:#000000;fill-opacity:1;fill-rule:nonzero;stroke:none"
         id="text274-8"><tspan
           x="477.94095"
           y="-203.24005"
           sodipodi:role="line"
           id="tspan276-3">8 </tspan></text>
<path
         inkscape:connector-curvature="0"
         style="opacity:0.41505378;fill:url(#pattern5920);fill-opacity:1;fill-rule:nonzero;stroke:none"
         d="m 472.74343,78.196096 17.9233,0 0,-12.880373 -17.9233,0 z"
         id="path5828-9-9" /></g><text
       id="text526-6"
       style="font-variant:normal;font-weight:bold;font-size:18px;font-family:FlamaBook;-inkscape-font-specification:FlamaBook-Bold;writing-mode:lr-tb;fill:#000000;fill-opacity:1;fill-rule:nonzero;stroke:none"
       transform="scale(1,-1)"
       x="293.60349"
       y="-297.38498"><tspan
         id="tspan528-3"
         sodipodi:role="line"
         y="-297.38498"
         x="219.72446"
         style="text-anchor:middle;text-align:center">Could Ranger </tspan><tspan
         sodipodi:role="line"
         y="-274.88498"
         x="219.72446"
         id="tspan5437"
         style="text-anchor:middle;text-align:center">do something silly?</tspan></text>
<g
       id="g5447"
       transform="translate(-21.478095,168.61741)"><path
         id="path538"
         style="fill:#aac46c;fill-opacity:1;fill-rule:evenodd;stroke:none"
         d="m 412.08955,25.923402 7.6882,0 0,-7.6882 -7.6882,0 0,7.6882 z"
         inkscape:connector-curvature="0" /><text
         y="-18.221802"
         x="423.12204"
         transform="scale(1,-1)"
         style="font-variant:normal;font-weight:normal;font-size:14px;font-family:FlamaBook;-inkscape-font-specification:FlamaBook;writing-mode:lr-tb;fill:#000000;fill-opacity:1;fill-rule:nonzero;stroke:none"
         id="text550"><tspan
           x="423.12204"
           y="-18.221802"
           sodipodi:role="line"
           id="tspan552">yes </tspan></text>
</g><g
       id="g5452"
       transform="translate(-21.478095,169.67698)"><path
         id="path562"
         style="fill:#cd665f;fill-opacity:1;fill-rule:evenodd;stroke:none"
         d="m 412.08955,1.0093021 7.6882,0 0,-7.6883 -7.6882,0 0,7.6883 z"
         inkscape:connector-curvature="0" /><text
         y="6.6923985"
         x="423.12204"
         transform="scale(1,-1)"
         style="font-variant:normal;font-weight:normal;font-size:14px;font-family:FlamaBook;-inkscape-font-specification:FlamaBook;writing-mode:lr-tb;fill:#000000;fill-opacity:1;fill-rule:nonzero;stroke:none"
         id="text574"><tspan
           x="423.12204"
           y="6.6923985"
           sodipodi:role="line"
           id="tspan576">no </tspan></text>
</g><g
       id="g5457"
       transform="translate(-21.478095,172.22058)"><path
         id="path586"
         style="fill:#6095c9;fill-opacity:1;fill-rule:evenodd;stroke:none"
         d="m 412.08955,-23.904898 7.6882,0 0,-7.6883 -7.6882,0 0,7.6883 z"
         inkscape:connector-curvature="0" /><text
         y="31.606598"
         x="423.12198"
         transform="scale(1,-1)"
         style="font-variant:normal;font-weight:normal;font-size:14px;font-family:FlamaBook;-inkscape-font-specification:FlamaBook;writing-mode:lr-tb;fill:#000000;fill-opacity:1;fill-rule:nonzero;stroke:none"
         id="text598"><tspan
           x="423.12198"
           y="31.606598"
           sodipodi:role="line"
           id="tspan600">no answer </tspan></text>
<path
         inkscape:connector-curvature="0"
         style="opacity:0.41505378;fill:url(#pattern5920-0);fill-opacity:1;fill-rule:nonzero;stroke:none"
         d="m 412.1421,-23.93152 7.48827,0 0,-7.695762 -7.48827,0 z"
         id="path5828-9-3" /></g><text
       y="-40.269226"
       x="135.06021"
       transform="scale(1,-1)"
       style="font-variant:normal;font-weight:normal;font-size:14px;font-family:FlamaBook;-inkscape-font-specification:FlamaBook;text-align:center;writing-mode:lr-tb;text-anchor:middle;fill:#000000;fill-opacity:1;fill-rule:nonzero;stroke:none"
       id="text5413"><tspan
         id="tspan5417"
         x="135.06021"
         y="-40.269226"
         sodipodi:role="line">second</tspan><tspan
         x="136.70084"
         y="-22.769226"
         sodipodi:role="line"
         id="tspan5421">interview </tspan></text>
<text
       y="-40.269226"
       x="253.78252"
       transform="scale(1,-1)"
       style="font-variant:normal;font-weight:normal;font-size:14px;font-family:FlamaBook;-inkscape-font-specification:FlamaBook;text-align:center;writing-mode:lr-tb;text-anchor:middle;fill:#000000;fill-opacity:1;fill-rule:nonzero;stroke:none"
       id="text5425"><tspan
         x="253.78252"
         y="-40.269226"
         sodipodi:role="line"
         id="tspan5427">ﬁrst</tspan><tspan
         id="tspan5429"
         x="255.42314"
         y="-22.769226"
         sodipodi:role="line">interview </tspan></text>
<text
       id="text5431"
       style="font-variant:normal;font-weight:normal;font-size:14px;font-family:FlamaBook;-inkscape-font-specification:FlamaBook;text-align:center;writing-mode:lr-tb;text-anchor:middle;fill:#000000;fill-opacity:1;fill-rule:nonzero;stroke:none"
       transform="scale(1,-1)"
       x="315.65289"
       y="-40.269226"><tspan
         sodipodi:role="line"
         y="-40.269226"
         x="315.65289"
         id="tspan5433">second</tspan><tspan
         id="tspan5435"
         sodipodi:role="line"
         y="-22.769226"
         x="317.29352">interview </tspan></text>
<path
       d="m 363.41694,59.773086 8e-5,201.227024"
       style="fill:none;stroke:#000000;stroke-width:0.80000001;stroke-linecap:butt;stroke-linejoin:round;stroke-miterlimit:10;stroke-dasharray:none;stroke-opacity:1"
       id="path5968"
       inkscape:connector-curvature="0" /></g></svg>