<?xml version="1.0" encoding="UTF-8" standalone="no"?>
<!-- Created with Inkscape (http://www.inkscape.org/) -->

<svg
   xmlns:dc="http://purl.org/dc/elements/1.1/"
   xmlns:cc="http://creativecommons.org/ns#"
   xmlns:rdf="http://www.w3.org/1999/02/22-rdf-syntax-ns#"
   xmlns:svg="http://www.w3.org/2000/svg"
   xmlns="http://www.w3.org/2000/svg"
   xmlns:sodipodi="http://sodipodi.sourceforge.net/DTD/sodipodi-0.dtd"
   xmlns:inkscape="http://www.inkscape.org/namespaces/inkscape"
   id="svg2"
   version="1.1"
   inkscape:version="0.91 r13725"
   width="557.38971"
   height="355.39761"
   xml:space="preserve"
   sodipodi:docname="domino-why-misbehavior.svg"><metadata
     id="metadata8"><rdf:RDF><cc:Work
         rdf:about=""><dc:format>image/svg+xml</dc:format><dc:type
           rdf:resource="http://purl.org/dc/dcmitype/StillImage" /><dc:title></dc:title></cc:Work></rdf:RDF></metadata><defs
     id="defs6"><clipPath
       clipPathUnits="userSpaceOnUse"
       id="clipPath18"><path
         d="M 0,0 480,0 480,310 0,310 0,0 Z"
         id="path20"
         inkscape:connector-curvature="0" /></clipPath><clipPath
       clipPathUnits="userSpaceOnUse"
       id="clipPath30"><path
         d="m 1.000013,1 476.999997,0 0,309 -476.999997,0 0,-309 z"
         id="path32"
         inkscape:connector-curvature="0" /></clipPath><clipPath
       clipPathUnits="userSpaceOnUse"
       id="clipPath40"><path
         d="m 1.000013,1 476.999997,0 0,309 -476.999997,0 0,-309 z"
         id="path42"
         inkscape:connector-curvature="0" /></clipPath><clipPath
       clipPathUnits="userSpaceOnUse"
       id="clipPath52"><path
         d="m 165,33 218,0 0,231 -218,0 0,-231 z"
         id="path54"
         inkscape:connector-curvature="0" /></clipPath><clipPath
       clipPathUnits="userSpaceOnUse"
       id="clipPath62"><path
         d="m 165,33 218,0 0,231 -218,0 0,-231 z"
         id="path64"
         inkscape:connector-curvature="0" /></clipPath><clipPath
       clipPathUnits="userSpaceOnUse"
       id="clipPath72"><path
         d="m 165,33 218,0 0,231 -218,0 0,-231 z"
         id="path74"
         inkscape:connector-curvature="0" /></clipPath><clipPath
       clipPathUnits="userSpaceOnUse"
       id="clipPath82"><path
         d="m 1.000013,1 476.999997,0 0,309 -476.999997,0 0,-309 z"
         id="path84"
         inkscape:connector-curvature="0" /></clipPath><clipPath
       clipPathUnits="userSpaceOnUse"
       id="clipPath94"><path
         d="m 1.000013,1 476.999997,0 0,309 -476.999997,0 0,-309 z"
         id="path96"
         inkscape:connector-curvature="0" /></clipPath><clipPath
       clipPathUnits="userSpaceOnUse"
       id="clipPath106"><path
         d="m 1.000013,1 476.999997,0 0,309 -476.999997,0 0,-309 z"
         id="path108"
         inkscape:connector-curvature="0" /></clipPath><clipPath
       clipPathUnits="userSpaceOnUse"
       id="clipPath120"><path
         d="m 1.000013,1 476.999997,0 0,309 -476.999997,0 0,-309 z"
         id="path122"
         inkscape:connector-curvature="0" /></clipPath><clipPath
       clipPathUnits="userSpaceOnUse"
       id="clipPath134"><path
         d="m 1.000013,1 476.999997,0 0,309 -476.999997,0 0,-309 z"
         id="path136"
         inkscape:connector-curvature="0" /></clipPath><clipPath
       clipPathUnits="userSpaceOnUse"
       id="clipPath148"><path
         d="m 1.000013,1 476.999997,0 0,309 -476.999997,0 0,-309 z"
         id="path150"
         inkscape:connector-curvature="0" /></clipPath><clipPath
       clipPathUnits="userSpaceOnUse"
       id="clipPath162"><path
         d="m 1.000013,1 476.999997,0 0,309 -476.999997,0 0,-309 z"
         id="path164"
         inkscape:connector-curvature="0" /></clipPath><clipPath
       clipPathUnits="userSpaceOnUse"
       id="clipPath176"><path
         d="m 1.000013,1 476.999997,0 0,309 -476.999997,0 0,-309 z"
         id="path178"
         inkscape:connector-curvature="0" /></clipPath><clipPath
       clipPathUnits="userSpaceOnUse"
       id="clipPath190"><path
         d="m 1.000013,1 476.999997,0 0,309 -476.999997,0 0,-309 z"
         id="path192"
         inkscape:connector-curvature="0" /></clipPath><clipPath
       clipPathUnits="userSpaceOnUse"
       id="clipPath204"><path
         d="m 1.000013,1 476.999997,0 0,309 -476.999997,0 0,-309 z"
         id="path206"
         inkscape:connector-curvature="0" /></clipPath><clipPath
       clipPathUnits="userSpaceOnUse"
       id="clipPath218"><path
         d="m 1.000013,1 476.999997,0 0,309 -476.999997,0 0,-309 z"
         id="path220"
         inkscape:connector-curvature="0" /></clipPath><clipPath
       clipPathUnits="userSpaceOnUse"
       id="clipPath232"><path
         d="m 1.000013,1 476.999997,0 0,309 -476.999997,0 0,-309 z"
         id="path234"
         inkscape:connector-curvature="0" /></clipPath><clipPath
       clipPathUnits="userSpaceOnUse"
       id="clipPath246"><path
         d="m 1.000013,1 476.999997,0 0,309 -476.999997,0 0,-309 z"
         id="path248"
         inkscape:connector-curvature="0" /></clipPath><clipPath
       clipPathUnits="userSpaceOnUse"
       id="clipPath260"><path
         d="m 1.000013,1 476.999997,0 0,309 -476.999997,0 0,-309 z"
         id="path262"
         inkscape:connector-curvature="0" /></clipPath><clipPath
       clipPathUnits="userSpaceOnUse"
       id="clipPath274"><path
         d="m 1.000013,1 476.999997,0 0,309 -476.999997,0 0,-309 z"
         id="path276"
         inkscape:connector-curvature="0" /></clipPath><clipPath
       clipPathUnits="userSpaceOnUse"
       id="clipPath288"><path
         d="m 1.000013,1 476.999997,0 0,309 -476.999997,0 0,-309 z"
         id="path290"
         inkscape:connector-curvature="0" /></clipPath><clipPath
       clipPathUnits="userSpaceOnUse"
       id="clipPath302"><path
         d="m 1.000013,1 476.999997,0 0,309 -476.999997,0 0,-309 z"
         id="path304"
         inkscape:connector-curvature="0" /></clipPath><clipPath
       clipPathUnits="userSpaceOnUse"
       id="clipPath316"><path
         d="m 1.000013,1 476.999997,0 0,309 -476.999997,0 0,-309 z"
         id="path318"
         inkscape:connector-curvature="0" /></clipPath><clipPath
       clipPathUnits="userSpaceOnUse"
       id="clipPath330"><path
         d="m 1.000013,1 476.999997,0 0,309 -476.999997,0 0,-309 z"
         id="path332"
         inkscape:connector-curvature="0" /></clipPath><clipPath
       clipPathUnits="userSpaceOnUse"
       id="clipPath344"><path
         d="m 1.000013,1 476.999997,0 0,309 -476.999997,0 0,-309 z"
         id="path346"
         inkscape:connector-curvature="0" /></clipPath><clipPath
       clipPathUnits="userSpaceOnUse"
       id="clipPath358"><path
         d="m 1.000013,1 476.999997,0 0,309 -476.999997,0 0,-309 z"
         id="path360"
         inkscape:connector-curvature="0" /></clipPath><clipPath
       clipPathUnits="userSpaceOnUse"
       id="clipPath372"><path
         d="m 1.000013,1 476.999997,0 0,309 -476.999997,0 0,-309 z"
         id="path374"
         inkscape:connector-curvature="0" /></clipPath><clipPath
       clipPathUnits="userSpaceOnUse"
       id="clipPath386"><path
         d="m 1.000013,1 476.999997,0 0,309 -476.999997,0 0,-309 z"
         id="path388"
         inkscape:connector-curvature="0" /></clipPath><clipPath
       clipPathUnits="userSpaceOnUse"
       id="clipPath400"><path
         d="m 1.000013,1 476.999997,0 0,309 -476.999997,0 0,-309 z"
         id="path402"
         inkscape:connector-curvature="0" /></clipPath><clipPath
       clipPathUnits="userSpaceOnUse"
       id="clipPath414"><path
         d="m 1.000013,1 476.999997,0 0,309 -476.999997,0 0,-309 z"
         id="path416"
         inkscape:connector-curvature="0" /></clipPath><clipPath
       clipPathUnits="userSpaceOnUse"
       id="clipPath428"><path
         d="m 1.000013,1 476.999997,0 0,309 -476.999997,0 0,-309 z"
         id="path430"
         inkscape:connector-curvature="0" /></clipPath><clipPath
       clipPathUnits="userSpaceOnUse"
       id="clipPath442"><path
         d="m 1.000013,1 476.999997,0 0,309 -476.999997,0 0,-309 z"
         id="path444"
         inkscape:connector-curvature="0" /></clipPath><clipPath
       clipPathUnits="userSpaceOnUse"
       id="clipPath456"><path
         d="m 1.000013,1 476.999997,0 0,309 -476.999997,0 0,-309 z"
         id="path458"
         inkscape:connector-curvature="0" /></clipPath><clipPath
       clipPathUnits="userSpaceOnUse"
       id="clipPath470"><path
         d="m 1.000013,1 476.999997,0 0,309 -476.999997,0 0,-309 z"
         id="path472"
         inkscape:connector-curvature="0" /></clipPath><clipPath
       clipPathUnits="userSpaceOnUse"
       id="clipPath484"><path
         d="m 1.000013,1 476.999997,0 0,309 -476.999997,0 0,-309 z"
         id="path486"
         inkscape:connector-curvature="0" /></clipPath><clipPath
       clipPathUnits="userSpaceOnUse"
       id="clipPath498"><path
         d="m 1.000013,1 476.999997,0 0,309 -476.999997,0 0,-309 z"
         id="path500"
         inkscape:connector-curvature="0" /></clipPath><clipPath
       clipPathUnits="userSpaceOnUse"
       id="clipPath512"><path
         d="m 1.000013,1 476.999997,0 0,309 -476.999997,0 0,-309 z"
         id="path514"
         inkscape:connector-curvature="0" /></clipPath><clipPath
       clipPathUnits="userSpaceOnUse"
       id="clipPath526"><path
         d="m 1.000013,1 476.999997,0 0,309 -476.999997,0 0,-309 z"
         id="path528"
         inkscape:connector-curvature="0" /></clipPath><clipPath
       clipPathUnits="userSpaceOnUse"
       id="clipPath540"><path
         d="m 1.000013,1 476.999997,0 0,309 -476.999997,0 0,-309 z"
         id="path542"
         inkscape:connector-curvature="0" /></clipPath><clipPath
       clipPathUnits="userSpaceOnUse"
       id="clipPath554"><path
         d="m 1.000013,1 476.999997,0 0,309 -476.999997,0 0,-309 z"
         id="path556"
         inkscape:connector-curvature="0" /></clipPath><clipPath
       clipPathUnits="userSpaceOnUse"
       id="clipPath568"><path
         d="m 1.000013,1 476.999997,0 0,309 -476.999997,0 0,-309 z"
         id="path570"
         inkscape:connector-curvature="0" /></clipPath><clipPath
       clipPathUnits="userSpaceOnUse"
       id="clipPath582"><path
         d="m 1.000013,1 476.999997,0 0,309 -476.999997,0 0,-309 z"
         id="path584"
         inkscape:connector-curvature="0" /></clipPath><clipPath
       clipPathUnits="userSpaceOnUse"
       id="clipPath596"><path
         d="m 1.000013,1 476.999997,0 0,309 -476.999997,0 0,-309 z"
         id="path598"
         inkscape:connector-curvature="0" /></clipPath><clipPath
       clipPathUnits="userSpaceOnUse"
       id="clipPath610"><path
         d="m 1.000013,1 476.999997,0 0,309 -476.999997,0 0,-309 z"
         id="path612"
         inkscape:connector-curvature="0" /></clipPath><clipPath
       clipPathUnits="userSpaceOnUse"
       id="clipPath620"><path
         d="m 1.000013,1 476.999997,0 0,309 -476.999997,0 0,-309 z"
         id="path622"
         inkscape:connector-curvature="0" /></clipPath><clipPath
       clipPathUnits="userSpaceOnUse"
       id="clipPath634"><path
         d="m 1.000013,1 476.999997,0 0,309 -476.999997,0 0,-309 z"
         id="path636"
         inkscape:connector-curvature="0" /></clipPath><clipPath
       clipPathUnits="userSpaceOnUse"
       id="clipPath644"><path
         d="m 1.000013,1 476.999997,0 0,309 -476.999997,0 0,-309 z"
         id="path646"
         inkscape:connector-curvature="0" /></clipPath><clipPath
       clipPathUnits="userSpaceOnUse"
       id="clipPath658"><path
         d="m 1.000013,1 476.999997,0 0,309 -476.999997,0 0,-309 z"
         id="path660"
         inkscape:connector-curvature="0" /></clipPath><clipPath
       clipPathUnits="userSpaceOnUse"
       id="clipPath668"><path
         d="m 1.000013,1 476.999997,0 0,309 -476.999997,0 0,-309 z"
         id="path670"
         inkscape:connector-curvature="0" /></clipPath><clipPath
       clipPathUnits="userSpaceOnUse"
       id="clipPath682"><path
         d="M 0,0 480,0 480,310 0,310 0,0 Z"
         id="path684"
         inkscape:connector-curvature="0" /></clipPath></defs><sodipodi:namedview
     pagecolor="#ffffff"
     bordercolor="#666666"
     borderopacity="1"
     objecttolerance="10"
     gridtolerance="10"
     guidetolerance="10"
     inkscape:pageopacity="0"
     inkscape:pageshadow="2"
     inkscape:window-width="2560"
     inkscape:window-height="1332"
     id="namedview4"
     showgrid="false"
     inkscape:zoom="1.8237946"
     inkscape:cx="451.14245"
     inkscape:cy="161.86515"
     inkscape:window-x="1920"
     inkscape:window-y="54"
     inkscape:window-maximized="1"
     inkscape:current-layer="g10"
     fit-margin-top="0"
     fit-margin-left="0"
     fit-margin-right="0"
     fit-margin-bottom="0" /><g
     id="g10"
     inkscape:groupmode="layer"
     inkscape:label="domino-why-misbehavior"
     transform="matrix(1.25,0,0,-1.25,-13.891531,368.43752)"><g
       id="g12" /><path
       inkscape:connector-curvature="0"
       id="path46"
       style="fill:none;stroke:#000000;stroke-width:0.80000001;stroke-linecap:butt;stroke-linejoin:round;stroke-miterlimit:10;stroke-dasharray:none;stroke-opacity:1"
       d="m 209.20005,263.20001 0,-229.713482 m 43,229.713482 0,-229.713482 m 44,229.713482 0,-229.713482 m 43,229.713482 0,-229.713482 m 43.76599,229.713482 0,-229.713482" /><path
       d="m 187.2,41.2 -21,0 0,10 21,0 0,-10 z m 44,26 -65,0 0,10 65,0 0,-10 z m -22,25 -43,0 0,10 43,0 0,-10 z m -22,51 -21,0 0,10 21,0 0,-10 z m 0,26 -21,0 0,10 21,0 0,-10 z m 22,25 -43,0 0,11 43,0 0,-11 z m -22,52 -21,0 0,10 21,0 0,-10 z"
       style="fill:#faa757;fill-opacity:1;fill-rule:nonzero;stroke:none"
       id="path56"
       inkscape:connector-curvature="0" /><path
       d="m 296.2,41.2 -109,0 0,10 109,0 0,-10 z m 0,26 -65,0 0,10 65,0 0,-10 z m -65,25 -22,0 0,10 22,0 0,-10 z m -22,26 -43,0 0,10 43,0 0,-10 z m 0,25 -22,0 0,10 22,0 0,-10 z"
       style="fill:#6095c9;fill-opacity:1;fill-rule:nonzero;stroke:none"
       id="path66"
       inkscape:connector-curvature="0" /><g
       id="g68"><g
         id="g70"
         clip-path="url(#clipPath72)"><path
           d="m 361.2,41.2 -65,0 0,10 65,0 0,-10 z m -22,26 -43,0 0,10 43,0 0,-10 z m -87,25 -21,0 0,10 21,0 0,-10 z m 0,26 -43,0 0,10 43,0 0,-10 z m -21,25 -22,0 0,10 22,0 0,-10 z m 0,26 -44,0 0,10 44,0 0,-10 z m 0,25 -22,0 0,11 22,0 0,-11 z m -22,26 -43,0 0,10 43,0 0,-10 z"
           style="fill:#cd665f;fill-opacity:1;fill-rule:nonzero;stroke:none"
           id="path76"
           inkscape:connector-curvature="0" /></g></g><path
       inkscape:connector-curvature="0"
       id="path88"
       style="fill:none;stroke:#000000;stroke-width:0.80000001;stroke-linecap:butt;stroke-linejoin:round;stroke-miterlimit:10;stroke-dasharray:none;stroke-opacity:1"
       d="m 165.80281,33.486541 217.16323,-8e-5" /><path
       inkscape:connector-curvature="0"
       id="path100"
       style="fill:none;stroke:#000000;stroke-width:0.80000001;stroke-linecap:butt;stroke-linejoin:round;stroke-miterlimit:10;stroke-dasharray:none;stroke-opacity:1"
       d="m 165.80281,33.486528 8e-5,230.113482" /><text
       id="text112"
       style="font-variant:normal;font-weight:normal;font-size:12px;font-family:FlamaBook;-inkscape-font-specification:FlamaBook;writing-mode:lr-tb;fill:#000000;fill-opacity:1;fill-rule:nonzero;stroke:none"
       transform="scale(1,-1)"
       x="173.11314"
       y="-42.270638"><tspan
         id="tspan114"
         sodipodi:role="line"
         y="-42.270638"
         x="173.11314">1 </tspan></text>
<text
       id="text126"
       style="font-variant:normal;font-weight:normal;font-size:12px;font-family:FlamaBook;-inkscape-font-specification:FlamaBook;writing-mode:lr-tb;fill:#000000;fill-opacity:1;fill-rule:nonzero;stroke:none"
       transform="scale(1,-1)"
       x="194.82945"
       y="-67.838737"><tspan
         id="tspan128"
         sodipodi:role="line"
         y="-67.838737"
         x="194.82945">3 </tspan></text>
<text
       id="text140"
       style="font-variant:normal;font-weight:normal;font-size:12px;font-family:FlamaBook;-inkscape-font-specification:FlamaBook;writing-mode:lr-tb;fill:#000000;fill-opacity:1;fill-rule:nonzero;stroke:none"
       transform="scale(1,-1)"
       x="183.97125"
       y="-93.406898"><tspan
         id="tspan142"
         sodipodi:role="line"
         y="-93.406898"
         x="183.97125">2 </tspan></text>
<text
       id="text154"
       style="font-variant:normal;font-weight:normal;font-size:12px;font-family:FlamaBook;-inkscape-font-specification:FlamaBook;writing-mode:lr-tb;fill:#000000;fill-opacity:1;fill-rule:nonzero;stroke:none"
       transform="scale(1,-1)"
       x="173.11314"
       y="-144.54321"><tspan
         id="tspan156"
         sodipodi:role="line"
         y="-144.54321"
         x="173.11314">1 </tspan></text>
<text
       id="text168"
       style="font-variant:normal;font-weight:normal;font-size:12px;font-family:FlamaBook;-inkscape-font-specification:FlamaBook;writing-mode:lr-tb;fill:#000000;fill-opacity:1;fill-rule:nonzero;stroke:none"
       transform="scale(1,-1)"
       x="173.11314"
       y="-170.1114"><tspan
         id="tspan170"
         sodipodi:role="line"
         y="-170.1114"
         x="173.11314">1 </tspan></text>
<text
       id="text182"
       style="font-variant:normal;font-weight:normal;font-size:12px;font-family:FlamaBook;-inkscape-font-specification:FlamaBook;writing-mode:lr-tb;fill:#000000;fill-opacity:1;fill-rule:nonzero;stroke:none"
       transform="scale(1,-1)"
       x="183.97125"
       y="-195.67961"><tspan
         id="tspan184"
         sodipodi:role="line"
         y="-195.67961"
         x="183.97125">2 </tspan></text>
<text
       id="text196"
       style="font-variant:normal;font-weight:normal;font-size:12px;font-family:FlamaBook;-inkscape-font-specification:FlamaBook;writing-mode:lr-tb;fill:#000000;fill-opacity:1;fill-rule:nonzero;stroke:none"
       transform="scale(1,-1)"
       x="173.11314"
       y="-246.8159"><tspan
         id="tspan198"
         sodipodi:role="line"
         y="-246.8159"
         x="173.11314">1 </tspan></text>
<text
       id="text210"
       style="font-variant:normal;font-weight:normal;font-size:12px;font-family:FlamaBook;-inkscape-font-specification:FlamaBook;writing-mode:lr-tb;fill:#000000;fill-opacity:1;fill-rule:nonzero;stroke:none"
       transform="scale(1,-1)"
       x="238.48315"
       y="-42.270638"><tspan
         id="tspan212"
         sodipodi:role="line"
         y="-42.270638"
         x="238.48315">5 </tspan></text>
<text
       id="text224"
       style="font-variant:normal;font-weight:normal;font-size:12px;font-family:FlamaBook;-inkscape-font-specification:FlamaBook;writing-mode:lr-tb;fill:#000000;fill-opacity:1;fill-rule:nonzero;stroke:none"
       transform="scale(1,-1)"
       x="259.97836"
       y="-67.838737"><tspan
         id="tspan226"
         sodipodi:role="line"
         y="-67.838737"
         x="259.97836">3 </tspan></text>
<text
       id="text238"
       style="font-variant:normal;font-weight:normal;font-size:12px;font-family:FlamaBook;-inkscape-font-specification:FlamaBook;writing-mode:lr-tb;fill:#000000;fill-opacity:1;fill-rule:nonzero;stroke:none"
       transform="scale(1,-1)"
       x="216.54575"
       y="-93.406898"><tspan
         id="tspan240"
         sodipodi:role="line"
         y="-93.406898"
         x="216.54575">1 </tspan></text>
<text
       id="text252"
       style="font-variant:normal;font-weight:normal;font-size:12px;font-family:FlamaBook;-inkscape-font-specification:FlamaBook;writing-mode:lr-tb;fill:#000000;fill-opacity:1;fill-rule:nonzero;stroke:none"
       transform="scale(1,-1)"
       x="183.97125"
       y="-118.9751"><tspan
         id="tspan254"
         sodipodi:role="line"
         y="-118.9751"
         x="183.97125">2 </tspan></text>
<text
       id="text266"
       style="font-variant:normal;font-weight:normal;font-size:12px;font-family:FlamaBook;-inkscape-font-specification:FlamaBook;writing-mode:lr-tb;fill:#000000;fill-opacity:1;fill-rule:nonzero;stroke:none"
       transform="scale(1,-1)"
       x="194.82945"
       y="-144.54321"><tspan
         id="tspan268"
         sodipodi:role="line"
         y="-144.54321"
         x="194.82945">1 </tspan></text>
<text
       id="text280"
       style="font-variant:normal;font-weight:normal;font-size:12px;font-family:FlamaBook;-inkscape-font-specification:FlamaBook;writing-mode:lr-tb;fill:#000000;fill-opacity:1;fill-rule:nonzero;stroke:none"
       transform="scale(1,-1)"
       x="325.12735"
       y="-42.270638"><tspan
         id="tspan282"
         sodipodi:role="line"
         y="-42.270638"
         x="325.12735">3 </tspan></text>
<text
       id="text294"
       style="font-variant:normal;font-weight:normal;font-size:12px;font-family:FlamaBook;-inkscape-font-specification:FlamaBook;writing-mode:lr-tb;fill:#000000;fill-opacity:1;fill-rule:nonzero;stroke:none"
       transform="scale(1,-1)"
       x="314.26917"
       y="-67.838737"><tspan
         id="tspan296"
         sodipodi:role="line"
         y="-67.838737"
         x="314.26917">2 </tspan></text>
<text
       id="text308"
       style="font-variant:normal;font-weight:normal;font-size:12px;font-family:FlamaBook;-inkscape-font-specification:FlamaBook;writing-mode:lr-tb;fill:#000000;fill-opacity:1;fill-rule:nonzero;stroke:none"
       transform="scale(1,-1)"
       x="238.26205"
       y="-93.406898"><tspan
         id="tspan310"
         sodipodi:role="line"
         y="-93.406898"
         x="238.26205">1 </tspan></text>
<text
       id="text322"
       style="font-variant:normal;font-weight:normal;font-size:12px;font-family:FlamaBook;-inkscape-font-specification:FlamaBook;writing-mode:lr-tb;fill:#000000;fill-opacity:1;fill-rule:nonzero;stroke:none"
       transform="scale(1,-1)"
       x="227.40385"
       y="-118.9751"><tspan
         id="tspan324"
         sodipodi:role="line"
         y="-118.9751"
         x="227.40385">2 </tspan></text>
<text
       id="text336"
       style="font-variant:normal;font-weight:normal;font-size:12px;font-family:FlamaBook;-inkscape-font-specification:FlamaBook;writing-mode:lr-tb;fill:#000000;fill-opacity:1;fill-rule:nonzero;stroke:none"
       transform="scale(1,-1)"
       x="216.54575"
       y="-144.54321"><tspan
         id="tspan338"
         sodipodi:role="line"
         y="-144.54321"
         x="216.54575">1 </tspan></text>
<text
       id="text350"
       style="font-variant:normal;font-weight:normal;font-size:12px;font-family:FlamaBook;-inkscape-font-specification:FlamaBook;writing-mode:lr-tb;fill:#000000;fill-opacity:1;fill-rule:nonzero;stroke:none"
       transform="scale(1,-1)"
       x="205.68755"
       y="-170.1114"><tspan
         id="tspan352"
         sodipodi:role="line"
         y="-170.1114"
         x="205.68755">2 </tspan></text>
<text
       id="text364"
       style="font-variant:normal;font-weight:normal;font-size:12px;font-family:FlamaBook;-inkscape-font-specification:FlamaBook;writing-mode:lr-tb;fill:#000000;fill-opacity:1;fill-rule:nonzero;stroke:none"
       transform="scale(1,-1)"
       x="216.54575"
       y="-195.67961"><tspan
         id="tspan366"
         sodipodi:role="line"
         y="-195.67961"
         x="216.54575">1 </tspan></text>
<text
       id="text378"
       style="font-variant:normal;font-weight:normal;font-size:12px;font-family:FlamaBook;-inkscape-font-specification:FlamaBook;writing-mode:lr-tb;fill:#000000;fill-opacity:1;fill-rule:nonzero;stroke:none"
       transform="scale(1,-1)"
       x="183.97125"
       y="-221.24771"><tspan
         id="tspan380"
         sodipodi:role="line"
         y="-221.24771"
         x="183.97125">2 </tspan></text>
<text
       id="text392"
       style="font-variant:normal;font-weight:normal;font-size:14px;font-family:FlamaBook;-inkscape-font-specification:FlamaBook;writing-mode:lr-tb;fill:#000000;fill-opacity:1;fill-rule:nonzero;stroke:none"
       transform="scale(1,-1)"
       x="162.255"
       y="-10.59991"><tspan
         id="tspan394"
         sodipodi:role="line"
         y="-10.59991"
         x="162.255">0 </tspan></text>
<text
       id="text406"
       style="font-variant:normal;font-weight:normal;font-size:14px;font-family:FlamaBook;-inkscape-font-specification:FlamaBook;writing-mode:lr-tb;fill:#000000;fill-opacity:1;fill-rule:nonzero;stroke:none"
       transform="scale(1,-1)"
       x="205.6877"
       y="-10.59991"><tspan
         id="tspan408"
         sodipodi:role="line"
         y="-10.59991"
         x="205.6877">2 </tspan></text>
<text
       id="text420"
       style="font-variant:normal;font-weight:normal;font-size:14px;font-family:FlamaBook;-inkscape-font-specification:FlamaBook;writing-mode:lr-tb;fill:#000000;fill-opacity:1;fill-rule:nonzero;stroke:none"
       transform="scale(1,-1)"
       x="249.1203"
       y="-10.59991"><tspan
         id="tspan422"
         sodipodi:role="line"
         y="-10.59991"
         x="249.1203">4 </tspan></text>
<text
       id="text434"
       style="font-variant:normal;font-weight:normal;font-size:14px;font-family:FlamaBook;-inkscape-font-specification:FlamaBook;writing-mode:lr-tb;fill:#000000;fill-opacity:1;fill-rule:nonzero;stroke:none"
       transform="scale(1,-1)"
       x="292.55289"
       y="-10.59991"><tspan
         id="tspan436"
         sodipodi:role="line"
         y="-10.59991"
         x="292.55289">6 </tspan></text>
<text
       id="text448"
       style="font-variant:normal;font-weight:normal;font-size:14px;font-family:FlamaBook;-inkscape-font-specification:FlamaBook;writing-mode:lr-tb;fill:#000000;fill-opacity:1;fill-rule:nonzero;stroke:none"
       transform="scale(1,-1)"
       x="335.9855"
       y="-10.59991"><tspan
         id="tspan450"
         sodipodi:role="line"
         y="-10.59991"
         x="335.9855">8 </tspan></text>
<text
       id="text462"
       style="font-variant:normal;font-weight:normal;font-size:14px;font-family:FlamaBook;-inkscape-font-specification:FlamaBook;writing-mode:lr-tb;fill:#000000;fill-opacity:1;fill-rule:nonzero;stroke:none"
       transform="scale(1,-1)"
       x="375.87039"
       y="-10.59991"><tspan
         id="tspan464"
         sodipodi:role="line"
         y="-10.59991"
         x="375.87039">10 </tspan></text>
<text
       id="text476"
       style="font-variant:normal;font-weight:normal;font-size:14px;font-family:FlamaBook;-inkscape-font-specification:FlamaBook;writing-mode:lr-tb;fill:#000000;fill-opacity:1;fill-rule:nonzero;stroke:none"
       transform="scale(1,-1)"
       x="52.39135"
       y="-40.670521"><tspan
         id="tspan478"
         sodipodi:role="line"
         y="-40.670521"
         x="52.39135">it is unpredictable </tspan></text>
<text
       id="text490"
       style="font-variant:normal;font-weight:normal;font-size:14px;font-family:FlamaBook;-inkscape-font-specification:FlamaBook;writing-mode:lr-tb;fill:#000000;fill-opacity:1;fill-rule:nonzero;stroke:none"
       transform="scale(1,-1)"
       x="51.270256"
       y="-66.238693"><tspan
         id="tspan492"
         sodipodi:role="line"
         y="-66.238693"
         x="51.270256">technical problem </tspan></text>
<text
       id="text504"
       style="font-variant:normal;font-weight:normal;font-size:14px;font-family:FlamaBook;-inkscape-font-specification:FlamaBook;writing-mode:lr-tb;fill:#000000;fill-opacity:1;fill-rule:nonzero;stroke:none"
       transform="scale(1,-1)"
       x="10.063225"
       y="-91.806801"><tspan
         id="tspan506"
         sodipodi:role="line"
         y="-91.806801"
         x="10.063225">it didn't want to continue </tspan></text>
<flowRoot
       transform="matrix(0.8,0,0,-0.8,4.989474,299.6421)"
       style="font-style:normal;font-weight:normal;font-size:40px;line-height:125%;font-family:Sans;letter-spacing:0px;word-spacing:0px;fill:#000000;fill-opacity:1;stroke:none"
       id="flowRoot5615"
       xml:space="preserve"><flowRegion
         id="flowRegion5617"><rect
           y="-46.525425"
           x="-25.588984"
           height="403.99576"
           width="214.79237"
           id="rect5619" /></flowRegion><flowPara
         id="flowPara5621" /></flowRoot><text
       id="text518"
       style="font-variant:normal;font-weight:normal;font-size:14px;font-family:FlamaBook;-inkscape-font-specification:FlamaBook;writing-mode:lr-tb;fill:#000000;fill-opacity:1;fill-rule:nonzero;stroke:none"
       transform="scale(1,-1)"
       x="97.699944"
       y="-117.375"><tspan
         id="tspan520"
         sodipodi:role="line"
         y="-117.375"
         x="97.699944">no answer </tspan></text>
<text
       id="text532"
       style="font-variant:normal;font-weight:normal;font-size:14px;font-family:FlamaBook;-inkscape-font-specification:FlamaBook;writing-mode:lr-tb;fill:#000000;fill-opacity:1;fill-rule:nonzero;stroke:none"
       transform="scale(1,-1)"
       x="94.281975"
       y="-142.94321"><tspan
         id="tspan534"
         sodipodi:role="line"
         y="-142.94321"
         x="94.281975">don't know </tspan></text>
<text
       id="text546"
       style="font-variant:normal;font-weight:normal;font-size:14px;font-family:FlamaBook;-inkscape-font-specification:FlamaBook;writing-mode:lr-tb;fill:#000000;fill-opacity:1;fill-rule:nonzero;stroke:none"
       transform="scale(1,-1)"
       x="53.758537"
       y="-168.51131"><tspan
         id="tspan548"
         sodipodi:role="line"
         y="-168.51131"
         x="53.758537">it made a mistake </tspan></text>
<text
       id="text560"
       style="font-variant:normal;font-weight:normal;font-size:14px;font-family:FlamaBook;-inkscape-font-specification:FlamaBook;writing-mode:lr-tb;fill:#000000;fill-opacity:1;fill-rule:nonzero;stroke:none"
       transform="scale(1,-1)"
       x="52.39135"
       y="-194.0795"><tspan
         id="tspan562"
         sodipodi:role="line"
         y="-194.0795"
         x="52.39135">it didn't hear / see </tspan></text>
<text
       id="text574"
       style="font-variant:normal;font-weight:normal;font-size:14px;font-family:FlamaBook;-inkscape-font-specification:FlamaBook;writing-mode:lr-tb;fill:#000000;fill-opacity:1;fill-rule:nonzero;stroke:none"
       transform="scale(1,-1)"
       x="86.133537"
       y="-219.64771"><tspan
         id="tspan576"
         sodipodi:role="line"
         y="-219.64771"
         x="86.133537">it was angry </tspan></text>
<text
       id="text588"
       style="font-variant:normal;font-weight:normal;font-size:14px;font-family:FlamaBook;-inkscape-font-specification:FlamaBook;writing-mode:lr-tb;fill:#000000;fill-opacity:1;fill-rule:nonzero;stroke:none"
       transform="scale(1,-1)"
       x="92.586662"
       y="-245.21581"><tspan
         id="tspan590"
         sodipodi:role="line"
         y="-245.21581"
         x="92.586662">it was tired </tspan></text>
<text
       id="text602"
       style="font-variant:normal;font-weight:bold;font-size:18px;font-family:FlamaBook;-inkscape-font-specification:FlamaBook-Bold;writing-mode:lr-tb;fill:#000000;fill-opacity:1;fill-rule:nonzero;stroke:none"
       transform="scale(1,-1)"
       x="120.20055"
       y="-281.70001"><tspan
         id="tspan604"
         sodipodi:role="line"
         y="-281.70001"
         x="120.20055">Why did Ranger not come over?</tspan></text>
<g
       id="g6019"
       transform="translate(-11.2,0)"><path
         inkscape:connector-curvature="0"
         id="path614"
         style="fill:#faa757;fill-opacity:1;fill-rule:evenodd;stroke:none"
         d="m 409.0676,168.3118 7.6882,0 0,-7.6882 -7.6882,0 0,7.6882 z" /><text
         y="-159.7567"
         x="420.10001"
         transform="scale(1,-1)"
         style="font-variant:normal;font-weight:normal;font-size:14px;font-family:FlamaBook;-inkscape-font-specification:FlamaBook;writing-mode:lr-tb;fill:#000000;fill-opacity:1;fill-rule:nonzero;stroke:none"
         id="text626"><tspan
           x="420.10001"
           y="-159.7567"
           sodipodi:role="line"
           id="tspan628">mistake </tspan></text>
</g><g
       id="g6024"
       transform="translate(-11.2,4.0535066)"><path
         inkscape:connector-curvature="0"
         id="path638"
         style="fill:#6095c9;fill-opacity:1;fill-rule:evenodd;stroke:none"
         d="m 409.0676,142.5442 7.6882,0 0,-7.6883 -7.6882,0 0,7.6883 z" /><text
         y="-133.98904"
         x="420.1001"
         transform="scale(1,-1)"
         style="font-variant:normal;font-weight:normal;font-size:14px;font-family:FlamaBook;-inkscape-font-specification:FlamaBook;writing-mode:lr-tb;fill:#000000;fill-opacity:1;fill-rule:nonzero;stroke:none"
         id="text650"><tspan
           x="420.1001"
           y="-133.98904"
           sodipodi:role="line"
           id="tspan652">lost </tspan></text>
</g><g
       id="g6029"
       transform="translate(-11.2,8.0000037)"><path
         inkscape:connector-curvature="0"
         id="path662"
         style="fill:#cd665f;fill-opacity:1;fill-rule:evenodd;stroke:none"
         d="m 409.0676,115.42755 7.6882,0 0,-7.6883 -7.6882,0 0,7.6883 z" /><text
         y="-108.3284"
         x="420.10001"
         transform="scale(1,-1)"
         style="font-variant:normal;font-weight:normal;font-size:14px;font-family:FlamaBook;-inkscape-font-specification:FlamaBook;writing-mode:lr-tb;fill:#000000;fill-opacity:1;fill-rule:nonzero;stroke:none"
         id="text674"><tspan
           x="420.10001"
           y="-108.3284"
           sodipodi:role="line"
           id="tspan676">disobey </tspan></text>
</g><path
       d="m 165.80281,263.224 217.16323,-8e-5"
       style="fill:none;stroke:#000000;stroke-width:0.80000001;stroke-linecap:butt;stroke-linejoin:round;stroke-miterlimit:10;stroke-dasharray:none;stroke-opacity:1"
       id="path4231"
       inkscape:connector-curvature="0" /><text
       id="text4229"
       style="font-variant:normal;font-weight:normal;font-size:14px;font-family:FlamaBook;-inkscape-font-specification:FlamaBook;writing-mode:lr-tb;fill:#000000;fill-opacity:1;fill-rule:nonzero;stroke:none"
       x="395.82373"
       y="-179.91771"
       transform="scale(1,-1)"><tspan
         id="tspan4231"
         sodipodi:role="line"
         y="-179.91771"
         x="395.82373"
         style="font-style:italic">Condition</tspan></text>
</g></svg>