<?xml version="1.0" encoding="UTF-8" standalone="no"?>
<!-- Created with Inkscape (http://www.inkscape.org/) -->

<svg
   xmlns:dc="http://purl.org/dc/elements/1.1/"
   xmlns:cc="http://creativecommons.org/ns#"
   xmlns:rdf="http://www.w3.org/1999/02/22-rdf-syntax-ns#"
   xmlns:svg="http://www.w3.org/2000/svg"
   xmlns="http://www.w3.org/2000/svg"
   xmlns:sodipodi="http://sodipodi.sourceforge.net/DTD/sodipodi-0.dtd"
   xmlns:inkscape="http://www.inkscape.org/namespaces/inkscape"
   width="210mm"
   height="297mm"
   viewBox="0 0 744.09448819 1052.3622047"
   id="svg4178"
   version="1.1"
   inkscape:version="0.91 r13725"
   sodipodi:docname="ko.svg">
  <defs
     id="defs4180" />
  <sodipodi:namedview
     id="base"
     pagecolor="#ffffff"
     bordercolor="#666666"
     borderopacity="1.0"
     inkscape:pageopacity="0.0"
     inkscape:pageshadow="2"
     inkscape:zoom="0.35"
     inkscape:cx="-105"
     inkscape:cy="520"
     inkscape:document-units="px"
     inkscape:current-layer="layer1"
     showgrid="false"
     inkscape:window-width="1855"
     inkscape:window-height="1056"
     inkscape:window-x="65"
     inkscape:window-y="24"
     inkscape:window-maximized="1" />
  <metadata
     id="metadata4183">
    <rdf:RDF>
      <cc:Work
         rdf:about="">
        <dc:format>image/svg+xml</dc:format>
        <dc:type
           rdf:resource="http://purl.org/dc/dcmitype/StillImage" />
        <dc:title></dc:title>
      </cc:Work>
    </rdf:RDF>
  </metadata>
  <g
     inkscape:label="Layer 1"
     inkscape:groupmode="layer"
     id="layer1">
    <path
       style="opacity:0.41000001;fill:#ff0000;fill-opacity:1;stroke:none;stroke-width:1.02199996;stroke-miterlimit:10;stroke-dasharray:none;stroke-dashoffset:0;stroke-opacity:1"
       id="path4726"
       d="m 193.49177,386.90469 c 1.81264,-4.59629 4.32123,-8.87235 6.85337,-13.09991 2.16089,-3.66067 4.52194,-7.19407 6.91548,-10.7048 1.84327,-2.33547 3.66113,-4.69523 5.52712,-7.01374 1.83994,-2.35766 3.83495,-4.54618 5.9859,-6.62151 3.30135,-2.96561 6.28759,-6.24228 9.26261,-9.52726 2.62138,-3.0519 5.44717,-5.89807 8.31783,-8.71029 1.87015,-1.95925 3.7783,-3.89617 5.39381,-6.07523 1.37619,-1.88596 3.0495,-3.52425 4.5863,-5.27612 2.17279,-2.43679 4.1481,-5.04667 6.08919,-7.6699 2.00387,-2.45769 3.82895,-5.05754 5.96012,-7.40819 0.30293,-0.33623 0.60586,-0.67245 0.90879,-1.00867 -0.0149,-0.0585 8.26392,-2.16449 8.27881,-2.10595 l 0,0 c -0.29652,0.36219 -0.59305,0.72439 -0.88957,1.08659 -2.20691,2.24629 -3.99591,4.79731 -6.02018,7.20368 -1.93638,2.678 -3.9463,5.29485 -6.03139,7.85769 -1.59632,1.63384 -3.0227,3.43414 -4.64021,5.05733 -1.55291,2.30844 -3.40603,4.34708 -5.33616,6.35093 -2.76747,2.89231 -5.81816,5.50983 -8.34489,8.63894 -2.98091,3.3044 -5.90539,6.67175 -9.22528,9.64642 -2.14769,2.03334 -4.30885,4.03024 -6.01138,6.47056 -2.02847,2.12633 -3.52325,4.71482 -5.58839,6.82137 -2.39857,3.4864 -4.7952,6.97621 -6.95883,10.61576 -2.52079,4.13921 -5.03461,8.3127 -6.91765,12.79015 0.019,0.0574 -8.09643,2.73953 -8.1154,2.68215 z"
       inkscape:connector-curvature="0" />
    <path
       style="opacity:0.41000001;fill:#ff0000;fill-opacity:1;stroke:none;stroke-width:1.02199996;stroke-miterlimit:10;stroke-dasharray:none;stroke-dashoffset:0;stroke-opacity:1"
       id="path4728"
       d="m 198.65751,327.67736 c 4.06811,2.98475 8.19068,5.8935 12.30279,8.81736 5.77703,3.78127 11.37498,7.81544 16.85079,12.01816 6.16967,4.36843 12.257,8.84923 18.5035,13.10853 6.85132,4.67307 13.5404,9.57518 20.43215,14.18943 5.46245,3.57087 10.8295,7.27907 16.39473,10.68934 2.79613,1.68319 1.40247,0.88136 4.17825,2.41022 0.0342,0.0496 -6.98367,4.88393 -7.01785,4.8343 l 0,0 c -2.80512,-1.58926 -1.40023,-0.76522 -4.2131,-2.47482 -5.56117,-3.44774 -10.93715,-7.17504 -16.41016,-10.75965 -6.87783,-4.6406 -13.57734,-9.53456 -20.43711,-14.20134 -6.264,-4.28565 -12.38832,-8.76667 -18.56293,-13.17921 -5.47318,-4.17665 -11.07851,-8.16648 -16.8231,-11.96283 -4.11003,-2.9097 -8.20734,-5.83761 -12.31509,-8.74978 -0.0335,-0.0503 7.08361,-4.79004 7.11713,-4.73971 z"
       inkscape:connector-curvature="0" />
  </g>
</svg>
