<?xml version="1.0" encoding="UTF-8" standalone="no"?>
<!-- Created with Inkscape (http://www.inkscape.org/) -->

<svg
   xmlns:dc="http://purl.org/dc/elements/1.1/"
   xmlns:cc="http://creativecommons.org/ns#"
   xmlns:rdf="http://www.w3.org/1999/02/22-rdf-syntax-ns#"
   xmlns:svg="http://www.w3.org/2000/svg"
   xmlns="http://www.w3.org/2000/svg"
   xmlns:sodipodi="http://sodipodi.sourceforge.net/DTD/sodipodi-0.dtd"
   xmlns:inkscape="http://www.inkscape.org/namespaces/inkscape"
   width="210mm"
   height="297mm"
   viewBox="0 0 744.09448819 1052.3622047"
   id="svg2"
   version="1.1"
   inkscape:version="0.91 r13725"
   sodipodi:docname="ok.svg">
  <defs
     id="defs4" />
  <sodipodi:namedview
     id="base"
     pagecolor="#ffffff"
     bordercolor="#666666"
     borderopacity="1.0"
     inkscape:pageopacity="0.0"
     inkscape:pageshadow="2"
     inkscape:zoom="0.35"
     inkscape:cx="-105"
     inkscape:cy="520"
     inkscape:document-units="px"
     inkscape:current-layer="layer1"
     showgrid="false"
     inkscape:window-width="1855"
     inkscape:window-height="1056"
     inkscape:window-x="65"
     inkscape:window-y="24"
     inkscape:window-maximized="1" />
  <metadata
     id="metadata7">
    <rdf:RDF>
      <cc:Work
         rdf:about="">
        <dc:format>image/svg+xml</dc:format>
        <dc:type
           rdf:resource="http://purl.org/dc/dcmitype/StillImage" />
        <dc:title></dc:title>
      </cc:Work>
    </rdf:RDF>
  </metadata>
  <g
     inkscape:label="Layer 1"
     inkscape:groupmode="layer"
     id="layer1">
    <path
       style="opacity:0.41000001;fill:#00ff00;fill-opacity:1;stroke:none;stroke-width:1.02199996;stroke-miterlimit:10;stroke-dasharray:none;stroke-dashoffset:0;stroke-opacity:1"
       id="path4138"
       d="m 189.66217,360.79735 c 0.29603,8.57093 2.405,16.97875 4.46457,25.26746 2.01841,8.20517 4.27259,16.3517 6.8811,24.38935 1.73545,5.3923 3.76586,10.67048 6.00406,15.87114 0.14372,0.30485 1.14264,2.59146 1.58082,2.99283 0.3851,0.35274 1.71615,-1.14158 1.2177,-0.98577 -5.4714,1.71033 -7.76907,4.77526 -3.61702,0.3064 8.57344,-11.03799 17.59385,-21.68206 26.98138,-32.03496 11.59575,-12.40649 23.40571,-24.62923 35.53844,-36.51305 7.84002,-7.6982 15.5446,-15.53291 23.73909,-22.8578 -0.0132,-0.0585 8.2596,-1.92282 8.27279,-1.86432 l 0,0 c -8.274,7.24429 -15.97784,15.08825 -23.81902,22.79202 -12.17869,11.8251 -23.96495,24.06154 -35.59564,36.42313 -9.39054,10.29872 -18.49221,20.84036 -26.86564,31.99157 -4.56524,5.30299 -11.83018,12.50429 -15.02296,3.62548 -2.2518,-5.25227 -4.30621,-10.57704 -6.04846,-16.02301 -2.62728,-8.07393 -4.87756,-16.26409 -6.90955,-24.50707 -2.10502,-8.41227 -4.21449,-16.93314 -4.69743,-25.619 -0.023,-0.0558 7.87276,-3.31023 7.89577,-3.2544 z"
       inkscape:connector-curvature="0" />
  </g>
</svg>
